<?xml version="1.0" encoding="utf-8"?>
<!-- Generator: Adobe Illustrator 15.0.2, SVG Export Plug-In . SVG Version: 6.00 Build 0)  -->
<!DOCTYPE svg PUBLIC "-//W3C//DTD SVG 1.1//EN" "http://www.w3.org/Graphics/SVG/1.1/DTD/svg11.dtd">
<svg version="1.1"
	 id="svg2" sodipodi:docname="logo-adbsfgt_quadri.svg" inkscape:version="0.92.2 (5c3e80d, 2017-08-06)" xmlns:inkscape="http://www.inkscape.org/namespaces/inkscape" xmlns:sodipodi="http://sodipodi.sourceforge.net/DTD/sodipodi-0.dtd" xmlns:svg="http://www.w3.org/2000/svg" xmlns:rdf="http://www.w3.org/1999/02/22-rdf-syntax-ns#" xmlns:cc="http://creativecommons.org/ns#" xmlns:dc="http://purl.org/dc/elements/1.1/"
	 xmlns="http://www.w3.org/2000/svg" xmlns:xlink="http://www.w3.org/1999/xlink" viewBox="88.04 76.972 1411.321 432.732" enable-background="new 88.04 76.972 1411.321 432.732"
	 xml:space="preserve">
<sodipodi:namedview  id="namedview4" inkscape:window-maximized="0" inkscape:current-layer="g10" inkscape:window-y="912" pagecolor="#ffffff" bordercolor="#666666" borderopacity="1" objecttolerance="10" gridtolerance="10" guidetolerance="10" showgrid="false" inkscape:zoom="0.35466801" inkscape:cx="793.70001" inkscape:cy="283.46667" inkscape:pageopacity="0" inkscape:pageshadow="2" inkscape:window-width="2005" inkscape:window-height="1161" inkscape:window-x="2389">
	</sodipodi:namedview>
<g id="g10" transform="matrix(1.3333333,0,0,-1.3333333,0,566.93333)" inkscape:label="ink_ext_XXXXXX" inkscape:groupmode="layer">
	<g id="g12" transform="scale(0.1)">
		<path id="path14" inkscape:connector-curvature="0" fill="#14465A" d="M4935.513,2219.812
			c80.559,42.568,139.424,103.517,139.424,190.737c0,286.842-400.73,305.511-590.127,305.511h-711.702V1671.89h332.183h379.519
			c170.281,0,643.162,11.565,643.162,296.843C5127.972,2092.879,5043.809,2171.23,4935.513,2219.812 M4105.291,2542.099h379.519
			c103.521,0,269.429-8.698,269.429-116.92c0-107.728-122.761-125.911-216.929-129.049c-21.16,0.359-432.019-0.491-432.019-0.491
			V2542.099z M4484.81,1845.877h-379.519v275.801h379.519c117.744,0,321.599,0,321.599-138.252
			C4806.409,1863.331,4605.572,1845.877,4484.81,1845.877"/>
		<path id="path16" inkscape:connector-curvature="0" fill="#14465A" d="M1679.989,2716.06h-156.097
			c-129.342,0-245.453-57.85-296.312-142.709l-525.447-901.425h332.007l111.65,190.862h700.349l111.453-190.862h331.967
			L1679.989,2716.06z M1247.15,2036.871l248.8,425.728l248.379-425.728H1247.15z"/>
		<path id="path18" inkscape:connector-curvature="0" fill="#14465A" d="M2899.871,2716.06h-546.658V1671.839h546.658
			c636.453,0,773.511,311.55,773.511,522.151S3536.324,2716.06,2899.871,2716.06 M2871.563,1845.511
			c-144.544,0-186.585,0.454-186.585,0.454v348.025v347.988c0,0,42.041,0.45,186.585,0.45
			c378.296,0,490.276-162.638,490.276-348.439C3361.839,2008.153,3249.859,1845.511,2871.563,1845.511"/>
		<path id="path20" inkscape:connector-curvature="0" fill="#14465A" d="M8416.7,1474.993h-156.138
			c-129.338,0-245.449-57.854-296.309-142.705L7438.829,430.86h331.978l111.65,190.869h700.356l111.445-190.869h331.971
			L8416.7,1474.993z M7983.824,795.804l248.789,425.728l248.431-425.728H7983.824z"/>
		<path id="path22" inkscape:connector-curvature="0" fill="#14465A" d="M2943.787,1474.993h-156.138
			c-129.339,0-245.449-57.854-296.309-142.705L1965.919,430.86h331.981l111.65,190.869H3109.9l111.453-190.869h331.97
			L2943.787,1474.993z M2510.911,795.804l248.789,425.728l248.394-425.728H2510.911z"/>
		<path id="path24" inkscape:connector-curvature="0" fill="#14465A" d="M6779.378,884.053h312.81V721.038
			c0-108.062-165.901-116.719-269.377-116.719c-378.303,0-490.283,162.598-490.283,348.479
			c0,183.882,110.061,344.758,478.843,348.113l455.354,0.044c144.419,0,267.415,72.715,312.847,173.906h-827.029v-1.26
			c-599.399-13.85-731.521-315.022-731.521-520.803c0-210.601,137.058-522.1,773.481-522.1l28.308-0.33
			c187.427,0,581.587,18.552,589.431,297.129v330.41h-632.864V884.053"/>
		<path id="path26" inkscape:connector-curvature="0" fill="#14465A" d="M8853.458,1474.906v-173.994h420.952v-870.3h320.464v870.3
			h396.468v173.994H8853.458"/>
		<path id="path28" inkscape:connector-curvature="0" fill="#14465A" d="M4293.047,1474.906h-299.407
			c-183.64,0-332.3-116.792-332.3-261.255V430.325h332.3v434.846h484.6v173.416h-484.6v262.244h484.6
			c144.448,0,267.59,72.839,313.14,174.075H4293.047"/>
		<path id="path30" inkscape:connector-curvature="0" fill="#14465A" d="M1462.2,1054.363c-124.68,0-243.358,0.813-264.522,0.527
			c-94.208,3.018-217.053,21.292-217.053,129.097c0,108.223,166.025,116.88,269.553,116.88h160.84h218.932h21.449
			c144.58,0,267.671,72.847,313.18,174.038H1629.95h-280.089h-99.683c-187.518,0-582.162-18.501-589.882-297.29
			c7.72-278.862,402.363-297.334,589.882-297.334l66.021-1.099c128.233,0,321.713,0,321.713-138.201
			c0-120.19-177.502-137.681-321.713-137.681H721.088V429.219h595.111c170.391,0,643.4,11.609,643.4,296.975
			C1959.599,1038.682,1586.811,1054.363,1462.2,1054.363"/>
		<path id="path32" inkscape:connector-curvature="0" fill="#14465A" d="M5938.58,603.829V429.798h-1147.2v783.486
			c0,144.045,148.74,261.087,332.139,261.087h797.864v-174.111h-606.021c-161.704,0-191.843-80.237-191.843-170.764v-90.007
			l776.214-0.981v-173.95l-776.214,0.125V603.829H5938.58"/>
		<path id="path34" inkscape:connector-curvature="0" fill="#14465A" d="M11245.204,603.829V429.798H10098.1v783.486
			c0,144.045,148.703,261.087,332.102,261.087h797.798v-174.111h-605.998c-161.697,0-191.8-80.237-191.8-170.764v-90.007
			l776.199-0.981v-173.95l-776.199,0.125V603.829H11245.204"/>
		<path id="path36" inkscape:connector-curvature="0" fill="#F36717" d="M6039.742,3630.339c-2.021,0.912-4.05,1.703-5.999,2.333
			c-1.963,0.63-3.845,1.11-5.574,1.388c-1.736,0.282-3.318,0.37-4.666,0.209c-1.362-0.146-2.483-0.549-3.303-1.219l-185.947-156.669
			c-3.582-3.04-8.291-5.391-13.982-7.039c-5.72-1.652-12.444-2.611-19.98-2.842c-7.588-0.231-16.018,0.271-25.107,1.52
			c-9.155,1.249-18.97,3.252-29.29,6.01l-741.153,197.802c-10.144,2.71-18.201,3.358-23.979,2.56
			c-5.801-0.798-9.309-3.062-10.298-6.149c-1.003-3.113,0.535-7.05,4.805-11.18c4.285-4.142,11.301-8.47,21.211-12.319
			l937.706-364.534c16.245-6.306,31.772-10.638,45.923-13.059c14.041-2.399,26.697-2.919,37.302-1.648
			c10.525,1.26,19.028,4.27,24.939,8.928c5.852,4.622,9.155,10.869,9.331,18.651l8.145,319.779c0.044,1.34-0.542,2.82-1.626,4.351
			c-1.077,1.531-2.637,3.12-4.519,4.68c-1.89,1.571-4.102,3.109-6.467,4.541C6044.833,3627.86,6042.291,3629.2,6039.742,3630.339"/>
		<path id="path38" inkscape:connector-curvature="0" fill="#F79210" d="M6190.592,3562.7c-2.454,1.091-4.893,2-7.163,2.659
			c-2.278,0.663-4.409,1.08-6.211,1.183c-1.809,0.099-3.311-0.103-4.329-0.67c-1.025-0.571-1.582-1.52-1.509-2.889l16.077-323.903
			c0.41-7.848,3.794-16.578,9.573-25.638c5.823-9.111,14.048-18.519,24.104-27.682c10.063-9.177,21.929-18.058,34.944-26.089
			c13.022-8.02,27.144-15.139,41.733-20.812l657.957-255.776c5.413-2.113,9.207-2.402,11.492-1.461
			c2.278,0.941,3.062,3.098,2.461,5.9c-0.586,2.798-2.542,6.251-5.742,9.778c-3.201,3.523-7.646,7.134-13.235,10.272
			l-496.223,278.511c-8.313,4.658-16.289,9.701-23.789,14.978c-7.493,5.292-14.495,10.811-20.852,16.432
			c-6.335,5.61-12.026,11.309-16.912,16.978c-4.871,5.651-8.936,11.25-12.056,16.681l-171.65,297.301
			c-0.784,1.359-1.86,2.71-3.149,4.028c-1.304,1.322-2.813,2.611-4.46,3.831c-1.663,1.23-3.464,2.391-5.317,3.461
			C6194.459,3560.851,6192.518,3561.832,6190.592,3562.7"/>
		<path id="path40" inkscape:connector-curvature="0" fill="#F1511B" d="M5765.802,3163.929l-1096.67,397.152
			c-11.792,4.27-22.72,6.229-31.853,6.42c-9.177,0.209-16.56-1.37-21.189-4.16c-4.651-2.802-6.519-6.83-4.636-11.499
			c1.875-4.691,7.529-10.012,17.886-15.363l841.904-438.08c12.905-6.76,24.8-14.099,35.508-21.841
			c10.715-7.738,20.266-15.908,28.477-24.309c8.232-8.419,15.132-17.098,20.515-25.869c5.398-8.8,9.28-17.703,11.44-26.51
			l166.67-673.891c1.047-4.292,2.849-8.21,5.229-11.759c2.373-3.552,5.339-6.702,8.694-9.452c3.376-2.75,7.134-5.09,11.125-6.98
			c3.999-1.901,8.21-3.358,12.48-4.358c5.398-1.271,10.876-1.813,16.084-1.571c5.193,0.231,10.122,1.219,14.451,3.021
			c4.314,1.787,8.013,4.38,10.774,7.8c2.747,3.398,4.57,7.628,5.12,12.719l73.689,726.229c1.047,10.551-1.729,21.841-7.588,33.219
			c-5.83,11.301-14.744,22.742-26.045,33.691c-11.279,10.92-24.976,21.39-40.488,30.798
			C5801.859,3148.768,5784.471,3157.169,5765.802,3163.929"/>
		<path id="path42" inkscape:connector-curvature="0" fill="#F9A721" d="M7007.008,2732.342l-705.22,257.648
			c-15.769,5.76-30.718,9.302-44.268,10.759c-13.652,1.472-25.92,0.831-36.189-1.798c-10.364-2.651-18.699-7.332-24.353-13.912
			c-5.698-6.647-8.657-15.227-8.188-25.62l30.623-700.8c0.176-4.808,1.501-9.39,3.655-13.63c2.175-4.237,5.193-8.13,8.76-11.558
			c3.582-3.431,7.712-6.39,12.092-8.771c4.395-2.369,9.023-4.171,13.623-5.281c3.618-0.868,7.222-1.318,10.642-1.278
			c3.413,0.029,6.658,0.549,9.58,1.597c2.915,1.04,5.515,2.611,7.654,4.761c2.131,2.15,3.801,4.871,4.885,8.21l159.646,501.281
			c1.992,6.27,5.251,11.689,9.624,16.201c4.336,4.479,9.778,8.068,16.157,10.73c6.328,2.64,13.586,4.358,21.621,5.12
			c7.976,0.751,16.736,0.549,26.118-0.652l501.541-66.299c5.061-0.688,7.903,0.531,8.95,2.889c1.047,2.351,0.322,5.823-1.758,9.631
			c-2.073,3.801-5.479,7.939-9.814,11.649c-4.329,3.71-9.587,7.009-15.374,9.119"/>
	</g>
</g>
</svg>
