<?xml version="1.0" encoding="utf-8"?>
<!-- Generator: Adobe Illustrator 15.0.2, SVG Export Plug-In . SVG Version: 6.00 Build 0)  -->
<!DOCTYPE svg PUBLIC "-//W3C//DTD SVG 1.1//EN" "http://www.w3.org/Graphics/SVG/1.1/DTD/svg11.dtd">
<svg version="1.1" id="Layer_1" xmlns="http://www.w3.org/2000/svg" xmlns:xlink="http://www.w3.org/1999/xlink" viewBox="0 0 1998.417 1521.153" enable-background="new 0 0 1998.417 1521.153"
	 xml:space="preserve">
<path fill-rule="evenodd" clip-rule="evenodd" fill="#DE0831" stroke="#000000" stroke-width="18" stroke-miterlimit="10" d="
	M1206.4,132.057c-20.685,8.603-46.502,22.384-32.527,54.427c14.277,34.266,45.631,30.975,67.637,18.118
	c22.561-9.786,19.689-57.294,1.53-66.18C1231.029,133.278,1219.432,130.138,1206.4,132.057z"/>
<path fill-rule="evenodd" clip-rule="evenodd" fill="#DE0831" stroke="#000000" stroke-width="18" stroke-miterlimit="10" d="
	M975.976,326.299c-83.39,70.465-125.719,160.301-150.279,294.493c-13.329,72.826,34.421,194.515,102.753,169.755
	c3.733-2.366,5.275-2.64,11.2-7.098c11.553-170.629,82.123-273.949,127.093-405.389
	C1051.096,350.672,1004.501,330.521,975.976,326.299z"/>
<path fill-rule="evenodd" clip-rule="evenodd" fill="#DE0831" stroke="#000000" stroke-width="18" stroke-miterlimit="10" d="
	M1126.729,408.876c-62.302,65.564-92.083,181.429-115.137,286.109c-6.771,30.746-18.615,91.461-2.722,117.653
	c19.417,23.911,134.856,36.608,163.357,14.814c31.068-23.759,39.146-242.456,43.314-282.252
	c3.342-31.901,13.01-93.472,0.841-115.857C1189.813,419.706,1164.424,409.962,1126.729,408.876z"/>
<path fill-rule="evenodd" clip-rule="evenodd" fill="#DE0831" stroke="#000000" stroke-width="18" stroke-miterlimit="10" d="
	M1317.83,416.976c-13.119,5.792-22.938,8.786-33.473,15.78c-8.809,89.301-17.621,178.628-26.43,267.929
	c-2.53,37.889-12.616,67.655-4.492,101.522c0.613,0.014,0.094,2.681,4.43,3.853c125.107,5.01,147.378-107.749,131.467-220.052
	C1380.043,520.444,1394.322,417.169,1317.83,416.976z"/>
<path fill-rule="evenodd" clip-rule="evenodd" fill="#DE0831" stroke="#000000" stroke-width="18" stroke-miterlimit="10" d="
	M756.055,132.834c-22.278,3.302-40.513,25.451-41.354,38.437c1.257,39.212,61.687,51.345,77.092,86.392
	c6.723,15.293-82.417,126.932-111.311,120.66c-29.605-6.428-78.966-24.807-87.092-51.676c-2.513-7.192,2.395-34.043,0.978-42.282
	c-4.558-24.235-26.433-69.408-61.227-56.596c-2.479,1.168-4.959,2.338-7.438,3.506c-3.004,15.626,7.334,32.912,2.358,57.074
	c-13.791,66.955-50.271,79.121-92.842,117.408c0.542,3.078-2.073,7.005,1.626,9.234c12.979,17.983,44.545,29.023,71.27,20.042
	c44.918-15.095,39.11-59.91,103.754-32.547c15.79,6.684,30.1,9.341,41.856,19.361c22.255,18.969-0.383,41.709,5.737,70.026
	c4.182,19.351,36.1,24.015,30.146,48.52c-15.965,57.059-87.375-21.083-116.453,24.896c-6.603,6.459-10.848,18.654-8.034,29.243
	c27.221,46.317,71.865,9.083,117.313,17.428c10.245,4.07,12.679,5.363,16.205,15.09c1.47,5.928,1.311,12.829-0.425,18.383
	c-9.381,22.91-53.807,31.816-56.17,42.845c-6.313,223.081,275.859,390.01,520.415,322.883
	c44.846-12.31,87.457-31.115,120.852-56.063c16.313-16.175,32.632-32.354,48.945-48.529c31.356-18.113,82.902,33.915,105.04-8.606
	c25.917-49.78-35.006-78.212-83.075-66.298c-64.765,16.052-117.676,44.238-188.913,56.327
	c-123.155,20.899-312.545-38.982-363.489-109.57c-16.058-22.25-24.084-52.842-29.295-85.286
	C749.341,548.82,839.359,400.626,896.8,329.985c19.066-23.448,46.873-61.875,80.665-68.028
	c19.889-3.622,140.581,80.631,174.438,92.322c76.289,26.344,267.811,35.199,242.564-69.801c-8.277-12.979-8.409-7.552-12.612-11.328
	c-24.999-0.614-44.85,12.23-53.525,7.958c-15.048-11.996-30.102-23.996-45.15-35.992c-26.793,0.275-40.531,14.929-66.604,16.853
	c-64.591,4.765-87.696-60.616-115.442-98.314c-70.179-2.307-120.71,5.92-169.807,25.501c-20.915,8.341-59.159,43.274-79.984,38.615
	C809.359,209.268,823.11,123.559,756.055,132.834z"/>
<path fill-rule="evenodd" clip-rule="evenodd" d="M1233.441,89.465c93.908,23.991,40.219,90.621,85.348,127.048
	c34.006,27.449,83.251-8.167,111.458,32.007c60.228,85.782-27.76,115.734-16.993,178.021
	c10.819,35.807,21.643,71.625,32.462,107.431c14.052,61.79-5.707,166.059-16.176,222.183
	c-13.217,70.855,90.363,63.753,57.093,155.823c-6.289,17.405-11.729,33.939-24.919,43.566c-45.655,33.322-70.337-7.17-113.45,10.947
	c-15.538,15.807-31.603,31.068-46.007,44.223c-30.461,21.488-66.888,39.607-106.019,50.888
	c-246.021,70.925-496.368-69.547-577.605-235.918c-16.365-33.515-13.596-78.854-26.734-116.496
	c-15.12-43.32-104.069-48.979-93.126-108.834c15.973-87.373,90.26-76.853,116.911-124.208c1.664-7.406,0.508-18.845-3.166-22.145
	c-3.675-3.3-14.563-10.373-23.729-7.906c-9.166,2.467-57.521,38.817-69.039,42.547c-79.866,21.742-148.452-40.78-155.885-99.25
	c51.106-33.393,135.871-34.325,111.651-135.366c-5.759-16.073-11.519-32.15-17.277-48.222
	c56.561-50.168,143.949-30.539,175.799,33.496c13.581,27.303,6.501,72.045,32.93,87.209c30.992,10.874,64.909-24.534,50.953-55.84
	c-12.132-28.087-42.994-41.25-51.696-71.09C646.525,132.03,745.884,75.6,802.931,94.221c36.986,12.073,46.071,62.998,92.267,66.511
	c48.6-21.986,94.638-36.144,162.798-40.61c31.048-0.812,62.988,4.368,75.367,1.976c12.379-2.393,59.41-30.126,66.945-31.56
	C1207.843,89.104,1218.724,86.522,1233.441,89.465z"/>
<path fill-rule="evenodd" clip-rule="evenodd" fill="#FFFFFF" stroke="#000000" stroke-width="18" stroke-miterlimit="10" d="
	M1206.4,132.057c-20.685,8.603-46.502,22.384-32.527,54.427c14.277,34.266,45.631,30.975,67.637,18.118
	c22.561-9.786,19.689-57.294,1.53-66.18C1231.029,133.278,1219.432,130.138,1206.4,132.057z"/>
<path fill-rule="evenodd" clip-rule="evenodd" fill="#FFFFFF" stroke="#000000" stroke-width="18" stroke-miterlimit="10" d="
	M756.055,132.834c-22.278,3.302-40.513,25.451-41.354,38.437c1.257,39.212,61.687,51.345,77.092,86.392
	c6.723,15.293-82.417,126.932-111.311,120.66c-29.605-6.428-78.966-24.807-87.092-51.676c-2.513-7.192,2.395-34.043,0.978-42.282
	c-4.558-24.235-26.433-69.408-61.227-56.596c-2.479,1.168-4.959,2.338-7.438,3.506c-3.004,15.626,7.334,32.912,2.358,57.074
	c-13.791,66.955-50.271,79.121-92.842,117.408c0.542,3.078-2.073,7.005,1.626,9.234c12.979,17.983,44.545,29.023,71.27,20.042
	c44.918-15.095,39.11-59.91,103.754-32.547c15.79,6.684,30.1,9.341,41.856,19.361c22.255,18.969-0.383,41.709,5.737,70.026
	c4.182,19.351,36.1,24.015,30.146,48.52c-15.965,57.059-87.375-21.083-116.453,24.896c-6.603,6.459-10.848,18.654-8.034,29.243
	c27.221,46.317,71.865,9.083,117.313,17.428c10.245,4.07,12.679,5.363,16.205,15.09c1.47,5.928,1.311,12.829-0.425,18.383
	c-9.381,22.91-53.807,31.816-56.17,42.845c-6.313,223.081,275.859,390.01,520.415,322.883
	c44.846-12.31,87.457-31.115,120.852-56.063c16.313-16.175,32.632-32.354,48.945-48.529c31.356-18.113,82.902,33.915,105.04-8.606
	c25.917-49.78-35.006-78.212-83.075-66.298c-64.765,16.052-117.676,44.238-188.913,56.327
	c-123.155,20.899-312.545-38.982-363.489-109.57c-16.058-22.25-24.084-52.842-29.295-85.286
	C749.341,548.82,839.359,400.626,896.8,329.985c19.066-23.448,46.873-61.875,80.665-68.028
	c19.889-3.622,140.581,80.631,174.438,92.322c76.289,26.344,267.811,35.199,242.564-69.801c-8.277-12.979-8.409-7.552-12.612-11.328
	c-24.999-0.614-44.85,12.23-53.525,7.958c-15.048-11.996-30.102-23.996-45.15-35.992c-26.793,0.275-40.531,14.929-66.604,16.853
	c-64.591,4.765-87.696-60.616-115.442-98.314c-70.179-2.307-120.71,5.92-169.807,25.501c-20.915,8.341-59.159,43.274-79.984,38.615
	C809.359,209.268,823.11,123.559,756.055,132.834z"/>
<path fill-rule="evenodd" clip-rule="evenodd" fill="#FFFFFF" stroke="#000000" stroke-width="18" stroke-miterlimit="10" d="
	M975.976,326.299c-83.39,70.465-125.719,160.301-150.279,294.493c-13.329,72.826,34.421,194.515,102.753,169.755
	c3.733-2.366,5.275-2.64,11.2-7.098c11.553-170.629,82.123-273.949,127.093-405.389
	C1051.096,350.672,1004.501,330.521,975.976,326.299z"/>
<path fill-rule="evenodd" clip-rule="evenodd" fill="#FFFFFF" stroke="#000000" stroke-width="18" stroke-miterlimit="10" d="
	M1126.729,408.876c-62.302,65.564-92.083,181.429-115.137,286.109c-6.771,30.746-18.615,91.461-2.722,117.653
	c19.417,23.911,134.856,36.608,163.357,14.814c31.068-23.759,39.146-242.456,43.314-282.252
	c3.342-31.901,13.01-93.472,0.841-115.857C1189.813,419.706,1164.424,409.962,1126.729,408.876z"/>
<path fill-rule="evenodd" clip-rule="evenodd" fill="#FFFFFF" stroke="#000000" stroke-width="18" stroke-miterlimit="10" d="
	M1317.83,416.976c-13.119,5.792-22.938,8.786-33.473,15.78c-8.809,89.301-17.621,178.628-26.43,267.929
	c-2.53,37.889-12.616,67.655-4.492,101.522c0.613,0.014,0.094,2.681,4.43,3.853c125.107,5.01,147.378-107.749,131.467-220.052
	C1380.043,520.444,1394.322,417.169,1317.83,416.976z"/>
<path d="M149.57,1386.899l-0.031-41.581l57.791-0.042c8.458-0.007,14.099,4.57,14.111,21.484
	c0.012,15.857-5.271,20.09-12.671,20.095L149.57,1386.899z M149.475,1256.166l58.142-0.043c5.991-0.004,10.221,3.164,10.232,17.612
	c0.011,15.152-4.217,16.917-10.207,16.921l-58.143,0.044L149.475,1256.166z M236.908,1316.006
	c44.045-3.556,53.545-22.591,53.519-58.182c-0.03-41.229-13.081-59.19-62.062-59.155l-146.238,0.107l0.181,245.609l146.238-0.107
	c39.818-0.028,65.884-14.849,65.847-65.238C294.363,1338.869,283.776,1318.086,236.908,1316.006z"/>
<path d="M452.116,1192.515c-79.638,0.059-122.257,26.166-122.184,125.537c0.073,101.133,42.733,131.055,122.372,130.996
	c79.285-0.058,121.901-30.041,121.828-131.174C574.059,1218.502,531.401,1192.458,452.116,1192.515z M452.259,1387.382
	c-45.457,0.033-50.395-6.307-50.441-68.678c-0.043-58.848,4.887-63.784,50.344-63.818c45.105-0.032,50.042,4.897,50.085,63.745
	C502.292,1381.002,497.363,1387.349,452.259,1387.382z"/>
<path d="M851.011,1198.214l-66.6,0.049l0.107,146.237c-25.76-49.666-53.282-98.979-81.155-146.179l-87.038,0.064l0.18,245.609
	l65.543-0.049l-0.11-150.467c29.284,49.313,58.216,99.682,85.738,150.404l83.515-0.061L851.011,1198.214z"/>
<path d="M1041.43,1385.542c-4.58,0.355-10.219,0.712-14.447,0.715c-45.104,0.033-61.671-6.298-61.715-66.907
	c-0.044-60.609,16.514-65.555,66.2-65.592c14.096-0.01,50.04,2.431,61.318,5.946l10.881-59.208
	c-18.68-4.92-56.387-8.415-79.292-8.398c-83.867,0.062-131.066,26.172-130.992,126.6c0.073,100.076,38.151,130.001,117.79,129.942
	c35.238-0.025,78.576-6.4,99.713-13.11l-0.107-147.296l-112.761,0.083l0.042,58.143l43.344-0.031L1041.43,1385.542z"/>
<path d="M1159.691,1197.988l0.18,245.609l67.305-0.05l-0.063-83.866l87.039-0.063l-0.043-58.143l-87.037,0.063l-0.033-44.4
	l116.285-0.084l-0.043-59.201L1159.691,1197.988z"/>
<path d="M1370.057,1197.834l0.179,245.608l67.305-0.049l-0.18-245.609L1370.057,1197.834z"/>
<path d="M1587.465,1191.684c-77.523,0.058-111.334,24.749-111.287,88.177c0.033,45.81,24.008,63.411,74.051,69.365
	c45.461,5.252,50.044,8.773,50.054,21.105c0.009,12.334-5.627,16.214-40.16,16.239c-28.896,0.021-52.86-4.189-68.72-8.055
	l-13.349,57.448c20.091,7.386,50.752,12.296,83.171,12.271c81.752-0.06,112.043-19.462,111.996-82.891
	c-0.034-47.219-24.717-68.695-80.045-75.703c-40.528-4.903-45.463-7.719-45.473-20.404c-0.008-9.867,4.922-15.861,39.102-15.887
	c29.601-0.021,53.566,3.838,69.777,7.701l12.997-57.095C1650.192,1196.572,1619.532,1191.662,1587.465,1191.684z"/>
<path d="M1777.152,1345.183l79.638-0.058l0.072,97.962l66.952-0.05l-0.18-245.608l-66.952,0.049l0.062,84.923l-79.638,0.059
	l-0.063-84.923l-67.304,0.049l0.18,245.609l67.305-0.05L1777.152,1345.183z"/>
</svg>
