<?xml version="1.0" encoding="utf-8"?>
<!-- Generator: Adobe Illustrator 15.0.2, SVG Export Plug-In . SVG Version: 6.00 Build 0)  -->
<!DOCTYPE svg PUBLIC "-//W3C//DTD SVG 1.1//EN" "http://www.w3.org/Graphics/SVG/1.1/DTD/svg11.dtd">
<svg version="1.1" id="Layer_1" xmlns="http://www.w3.org/2000/svg" xmlns:xlink="http://www.w3.org/1999/xlink" viewBox="0 0 297.64 121.89" enable-background="new 0 0 297.64 121.89" xml:space="preserve">
<g>
	<defs>
		<rect id="SVGID_1_" width="297.64" height="121.89"/>
	</defs>
	<clipPath id="SVGID_2_">
		<use xlink:href="#SVGID_1_"  overflow="visible"/>
	</clipPath>
	<path clip-path="url(#SVGID_2_)" d="M53.229,84.016H25.954c-5.927,0-10.816-1.875-14.566-5.558
		c-3.771-3.684-5.696-8.555-5.696-14.498V44.252c0-6.177,1.908-11.355,5.662-15.373c3.768-4.017,8.772-6.078,14.85-6.078
		l33.742,0.135l0.737,0.016v0.738l-0.117,8.101l-0.017,0.721h-0.72H26.121c-3.181,0-5.693,1.188-7.702,3.666
		c-2.008,2.498-3.013,5.395-3.013,8.576v18.068c0,3.248,0.937,5.926,2.88,8.186c1.875,2.177,4.42,3.282,7.566,3.282h27.344
		c3.151,0,5.746-1.055,7.939-3.266c2.209-2.209,3.282-4.805,3.282-7.936V3.125V2.389h0.736h8.236h0.737v0.736v59.061
		c0,5.909-2.008,11.083-5.959,15.368C64.182,81.839,59.16,84.016,53.229,84.016"/>
	<path clip-path="url(#SVGID_2_)" d="M141.874,84.016h-0.737H98.522c-6.094,0-11.099-2.075-14.849-6.128
		c-3.751-4.034-5.663-9.123-5.663-15.117V43.03c0-5.981,1.929-10.971,5.729-14.821c3.801-3.816,8.773-5.775,14.783-5.775h42.615
		h0.737v0.736v8.237v0.736h-0.737H98.438c-3.198,0-5.725,1.172-7.701,3.617c-2.009,2.465-3.013,5.361-3.013,8.625v17.784
		c0,3.231,0.971,6.01,3.013,8.504c1.976,2.445,4.488,3.617,7.701,3.617h42.699h0.737v0.736v8.252V84.016z"/>
	<path clip-path="url(#SVGID_2_)" d="M209.483,84.016h-0.736h-42.606c-6.111,0-11.116-2.075-14.866-6.128
		c-3.759-4.051-5.667-9.14-5.667-15.117V43.03c0-5.998,1.941-10.971,5.75-14.821c3.784-3.816,8.756-5.775,14.783-5.775h42.606h0.736
		v0.736v8.237v0.736h-0.736H166.04c-3.181,0-5.709,1.189-7.701,3.633c-1.992,2.465-2.997,5.361-2.997,8.609v17.784
		c0,3.214,0.972,5.994,2.997,8.504c1.992,2.445,4.503,3.617,7.701,3.617h42.707h0.736v0.736v8.252V84.016z"/>
	<path clip-path="url(#SVGID_2_)" d="M259.49,83.766h-42.749h-0.737v-0.737V74.91v-0.737h0.737h40.841
		c4.887,0,7.248-2.913,7.248-8.906c0-2.294-0.552-4.236-1.641-5.793c-1.037-1.506-2.628-2.227-4.838-2.227h-29.046
		c-4.713,0-8.563-1.757-11.461-5.222c-2.896-3.432-4.368-7.572-4.368-12.309c0-4.756,1.473-8.912,4.368-12.377
		c2.897-3.498,6.765-5.291,11.461-5.291h42.74h0.737v0.739v8.236v0.736h-0.737h-40.832c-4.889,0-7.257,2.498-7.257,7.639
		c0,2.326,0.535,4.219,1.648,5.793c1.021,1.488,2.578,2.213,4.721,2.213h29.164c4.687,0,8.538,1.758,11.451,5.222
		c2.896,3.416,4.369,7.536,4.369,12.255c0,5.141-1.34,9.51-3.951,12.992C268.53,81.774,264.529,83.766,259.49,83.766"/>
	<rect x="7.871" y="96.662" clip-path="url(#SVGID_2_)" width="2.874" height="21.051"/>
	<polygon clip-path="url(#SVGID_2_)" points="23.231,99.248 23.231,117.711 20.357,117.711 20.357,99.248 13.662,99.248 
		13.662,96.661 30.229,96.661 30.229,99.248 	"/>
	<path clip-path="url(#SVGID_2_)" d="M47.015,117.711h-6.006V96.661c2.558-0.124,4.402-0.187,5.532-0.187
		c2.079,0,3.689,0.448,4.828,1.344c1.14,0.896,1.711,2.176,1.711,3.843c0,0.978-0.365,1.869-1.093,2.674
		c-0.728,0.804-1.533,1.308-2.414,1.508c1.666,0.402,2.881,1.07,3.643,1.999s1.142,2.193,1.142,3.793
		c0,1.848-0.678,3.323-2.033,4.426C50.969,117.162,49.2,117.711,47.015,117.711 M43.883,98.959v6.05
		c0.604,0.058,1.351,0.087,2.241,0.087c2.721,0,4.082-1.107,4.082-3.32c0-1.943-1.25-2.916-3.751-2.916
		C45.497,98.86,44.639,98.894,43.883,98.959 M43.883,107.238v8.032c0.987,0.096,1.743,0.143,2.271,0.143
		c1.8,0,3.115-0.338,3.944-1.012c0.828-0.677,1.243-1.753,1.243-3.226c0-1.371-0.396-2.382-1.186-3.033s-2.11-0.979-3.959-0.979
		L43.883,107.238z"/>
	<path clip-path="url(#SVGID_2_)" d="M60.034,102.322v9.815c0,2.375,1.03,3.563,3.089,3.563c0.9,0,1.724-0.259,2.473-0.776
		c0.746-0.517,1.24-1.116,1.478-1.796v-10.807h2.731v15.39h-2.731v-2.127c-0.307,0.605-0.922,1.158-1.846,1.661
		C64.305,117.749,63.4,118,62.519,118c-1.685,0-2.976-0.484-3.872-1.452c-0.896-0.967-1.343-2.342-1.343-4.124v-10.103H60.034z"/>
	<path clip-path="url(#SVGID_2_)" d="M72.521,116.792l0.963-2.586c1.522,0.996,2.749,1.494,3.678,1.494
		c1.685,0,2.53-0.709,2.53-2.127c0-1.016-0.816-1.888-2.444-2.615c-1.254-0.576-2.1-1.011-2.536-1.308
		c-0.435-0.298-0.814-0.634-1.135-1.014c-0.322-0.378-0.56-0.779-0.718-1.206c-0.158-0.427-0.237-0.884-0.237-1.373
		c0-1.265,0.46-2.251,1.379-2.96s2.122-1.063,3.606-1.063c1.121,0,2.534,0.354,4.24,1.063l-0.776,2.529
		c-1.083-0.862-2.17-1.293-3.262-1.293c-0.651,0-1.2,0.153-1.645,0.459c-0.446,0.308-0.668,0.695-0.668,1.164
		c0,0.987,0.56,1.734,1.68,2.242l1.954,0.891c1.198,0.546,2.07,1.168,2.616,1.868s0.82,1.576,0.82,2.63
		c0,1.379-0.484,2.459-1.451,3.239C80.146,117.61,78.806,118,77.09,118C75.472,118,73.95,117.597,72.521,116.792"/>
	<path clip-path="url(#SVGID_2_)" d="M86.761,117.711v-13.09H84.65v-2.3h4.842v15.39H86.761z M88.256,96.503
		c0.469,0,0.869,0.164,1.2,0.495c0.33,0.33,0.495,0.726,0.495,1.186c0,0.47-0.165,0.869-0.495,1.199
		c-0.331,0.332-0.731,0.496-1.2,0.496c-0.46,0-0.854-0.164-1.186-0.496c-0.33-0.33-0.496-0.729-0.496-1.199
		c0-0.471,0.162-0.866,0.489-1.192C87.389,96.665,87.786,96.503,88.256,96.503"/>
	<path clip-path="url(#SVGID_2_)" d="M103.301,117.711v-8.952c0-1.638-0.246-2.785-0.74-3.44c-0.494-0.657-1.32-0.984-2.479-0.984
		c-0.623,0-1.273,0.186-1.954,0.56c-0.681,0.374-1.202,0.833-1.567,1.379v11.438h-2.729v-15.39h1.867l0.862,1.982
		c0.901-1.513,2.373-2.27,4.412-2.27c3.373,0,5.058,2.051,5.058,6.15v9.526H103.301z"/>
	<path clip-path="url(#SVGID_2_)" d="M122.873,110.284h-11.094c0,1.8,0.492,3.186,1.481,4.152c0.871,0.843,1.992,1.265,3.361,1.265
		c1.563,0,2.865-0.455,3.908-1.366l1.151,1.97c-0.422,0.421-1.069,0.785-1.94,1.092c-1.094,0.402-2.308,0.604-3.65,0.604
		c-1.936,0-3.578-0.657-4.928-1.97c-1.505-1.446-2.258-3.392-2.258-5.834c0-2.538,0.773-4.574,2.315-6.107
		c1.38-1.369,3.011-2.055,4.9-2.055c2.193,0,3.912,0.618,5.158,1.854c1.207,1.188,1.811,2.764,1.811,4.727
		C123.088,109.22,123.016,109.776,122.873,110.284 M116.248,104.334c-1.217,0-2.236,0.393-3.061,1.178
		c-0.785,0.747-1.231,1.676-1.336,2.789h8.521c0-1.104-0.345-2.022-1.034-2.761C118.581,104.737,117.551,104.334,116.248,104.334"/>
	<path clip-path="url(#SVGID_2_)" d="M124.955,116.792l0.963-2.586c1.523,0.996,2.75,1.494,3.679,1.494
		c1.686,0,2.53-0.709,2.53-2.127c0-1.016-0.816-1.888-2.443-2.615c-1.256-0.576-2.102-1.011-2.538-1.308
		c-0.435-0.298-0.814-0.634-1.134-1.014c-0.322-0.378-0.561-0.779-0.719-1.206c-0.158-0.427-0.236-0.884-0.236-1.373
		c0-1.265,0.459-2.251,1.378-2.96c0.92-0.709,2.122-1.063,3.607-1.063c1.122,0,2.534,0.354,4.239,1.063l-0.775,2.529
		c-1.084-0.862-2.17-1.293-3.262-1.293c-0.652,0-1.201,0.153-1.646,0.459c-0.446,0.308-0.668,0.695-0.668,1.164
		c0,0.987,0.56,1.734,1.681,2.242l1.953,0.891c1.199,0.546,2.071,1.168,2.618,1.868c0.544,0.7,0.818,1.576,0.818,2.63
		c0,1.379-0.483,2.459-1.451,3.239c-0.969,0.782-2.31,1.173-4.024,1.173C127.906,118,126.383,117.597,124.955,116.792"/>
	<path clip-path="url(#SVGID_2_)" d="M136.867,116.792l0.963-2.586c1.523,0.996,2.75,1.494,3.679,1.494
		c1.685,0,2.529-0.709,2.529-2.127c0-1.016-0.814-1.888-2.443-2.615c-1.255-0.576-2.101-1.011-2.537-1.308
		c-0.435-0.298-0.814-0.634-1.134-1.014c-0.322-0.378-0.561-0.779-0.719-1.206c-0.158-0.427-0.236-0.884-0.236-1.373
		c0-1.265,0.459-2.251,1.378-2.96c0.92-0.709,2.122-1.063,3.607-1.063c1.121,0,2.534,0.354,4.239,1.063l-0.775,2.529
		c-1.084-0.862-2.17-1.293-3.262-1.293c-0.652,0-1.201,0.153-1.646,0.459c-0.446,0.308-0.668,0.695-0.668,1.164
		c0,0.987,0.56,1.734,1.681,2.242l1.954,0.891c1.198,0.546,2.07,1.168,2.617,1.868c0.545,0.7,0.818,1.576,0.818,2.63
		c0,1.379-0.484,2.459-1.451,3.239c-0.968,0.782-2.309,1.173-4.024,1.173C139.818,118,138.295,117.597,136.867,116.792"/>
	<path clip-path="url(#SVGID_2_)" d="M157.918,116.75l1.049-2.645c0.537,0.394,1.205,0.721,2.006,0.984
		c0.8,0.265,1.516,0.396,2.148,0.396c1.12,0,2.021-0.308,2.701-0.921s1.02-1.394,1.02-2.342c0-0.709-0.189-1.367-0.566-1.976
		c-0.378-0.608-1.33-1.272-2.854-1.99l-1.695-0.79c-1.438-0.672-2.44-1.466-3.011-2.385c-0.568-0.922-0.854-2.027-0.854-3.32
		c0-1.57,0.556-2.874,1.666-3.908c1.111-1.035,2.539-1.553,4.283-1.553c2.327,0,3.946,0.379,4.857,1.137l-0.849,2.5
		c-0.384-0.278-0.968-0.547-1.753-0.805c-0.786-0.26-1.514-0.39-2.185-0.39c-0.978,0-1.745,0.279-2.307,0.834
		c-0.56,0.555-0.84,1.27-0.84,2.142c0,0.535,0.101,1.023,0.302,1.466c0.201,0.44,0.481,0.809,0.84,1.105
		c0.359,0.297,1.094,0.714,2.205,1.25l1.726,0.82c1.437,0.679,2.446,1.493,3.024,2.436c0.58,0.943,0.869,2.144,0.869,3.6
		c0,1.579-0.635,2.921-1.903,4.022c-1.271,1.103-2.968,1.652-5.094,1.652C160.836,118.071,159.24,117.631,157.918,116.75"/>
	<path clip-path="url(#SVGID_2_)" d="M171.8,109.981c0-2.375,0.64-4.293,1.919-5.754c1.279-1.462,2.963-2.192,5.051-2.192
		c2.203,0,3.913,0.701,5.13,2.105c1.217,1.403,1.825,3.351,1.825,5.841c0,2.481-0.623,4.438-1.869,5.871
		c-1.244,1.432-2.939,2.148-5.086,2.148c-2.193,0-3.904-0.725-5.13-2.17C172.414,114.383,171.8,112.433,171.8,109.981
		 M174.675,109.981c0,3.86,1.364,5.791,4.095,5.791c1.273,0,2.272-0.517,2.996-1.552c0.723-1.034,1.085-2.447,1.085-4.239
		c0-3.813-1.36-5.719-4.081-5.719c-1.245,0-2.239,0.508-2.982,1.523C175.045,106.801,174.675,108.2,174.675,109.981"/>
	<path clip-path="url(#SVGID_2_)" d="M188.813,113.358V96.014h2.731v16.883c0,0.825,0.236,1.474,0.712,1.948
		c0.474,0.475,1.093,0.711,1.859,0.711V118C190.581,118,188.813,116.453,188.813,113.358"/>
	<path clip-path="url(#SVGID_2_)" d="M199.863,102.322v9.815c0,2.375,1.03,3.563,3.09,3.563c0.9,0,1.724-0.259,2.473-0.776
		c0.746-0.517,1.239-1.116,1.479-1.796v-10.807h2.73v15.39h-2.73v-2.127c-0.307,0.605-0.922,1.158-1.846,1.661
		S203.23,118,202.349,118c-1.685,0-2.977-0.484-3.872-1.452c-0.896-0.967-1.344-2.342-1.344-4.124v-10.103H199.863z"/>
	<path clip-path="url(#SVGID_2_)" d="M214.334,104.477h-1.781v-2.155h1.781v-3.219l2.73-1.049v4.268h4.224v2.155h-4.224v7.646
		c0,1.292,0.217,2.212,0.652,2.759c0.438,0.546,1.139,0.819,2.106,0.819c0.698,0,1.423-0.178,2.169-0.532l0.404,2.399
		c-1.132,0.288-2.372,0.433-3.723,0.433c-1.217,0-2.244-0.455-3.082-1.359c-0.839-0.905-1.258-2.047-1.258-3.427V104.477z"/>
	<path clip-path="url(#SVGID_2_)" d="M226.346,117.711v-13.09h-2.111v-2.3h4.842v15.39H226.346z M227.841,96.503
		c0.47,0,0.869,0.164,1.2,0.495c0.33,0.33,0.495,0.726,0.495,1.186c0,0.47-0.165,0.869-0.495,1.199
		c-0.331,0.332-0.73,0.496-1.2,0.496c-0.46,0-0.854-0.164-1.186-0.496c-0.331-0.33-0.496-0.729-0.496-1.199
		c0-0.471,0.163-0.866,0.489-1.192C226.974,96.665,227.371,96.503,227.841,96.503"/>
	<path clip-path="url(#SVGID_2_)" d="M232.41,109.981c0-2.375,0.641-4.293,1.919-5.754c1.278-1.462,2.962-2.192,5.05-2.192
		c2.203,0,3.914,0.701,5.131,2.105c1.217,1.403,1.824,3.351,1.824,5.841c0,2.481-0.622,4.438-1.867,5.871
		c-1.246,1.432-2.941,2.148-5.088,2.148c-2.193,0-3.902-0.725-5.129-2.17C233.023,114.383,232.41,112.433,232.41,109.981
		 M235.285,109.981c0,3.86,1.364,5.791,4.094,5.791c1.274,0,2.273-0.517,2.997-1.552c0.723-1.034,1.085-2.447,1.085-4.239
		c0-3.813-1.361-5.719-4.082-5.719c-1.244,0-2.238,0.508-2.98,1.523S235.285,108.2,235.285,109.981"/>
	<path clip-path="url(#SVGID_2_)" d="M258.679,117.711v-8.952c0-1.638-0.247-2.785-0.74-3.44c-0.493-0.657-1.319-0.984-2.479-0.984
		c-0.624,0-1.274,0.186-1.954,0.56c-0.682,0.374-1.203,0.833-1.566,1.379v11.438h-2.73v-15.39h1.868l0.862,1.982
		c0.9-1.513,2.371-2.27,4.412-2.27c3.371,0,5.056,2.051,5.056,6.15v9.526H258.679z"/>
	<path clip-path="url(#SVGID_2_)" d="M264.282,116.792l0.963-2.586c1.523,0.996,2.749,1.494,3.679,1.494
		c1.686,0,2.529-0.709,2.529-2.127c0-1.016-0.814-1.888-2.443-2.615c-1.254-0.576-2.1-1.011-2.535-1.308
		c-0.436-0.298-0.814-0.634-1.136-1.014c-0.321-0.378-0.561-0.779-0.719-1.206s-0.236-0.884-0.236-1.373
		c0-1.265,0.46-2.251,1.378-2.96c0.92-0.709,2.123-1.063,3.607-1.063c1.121,0,2.534,0.354,4.24,1.063l-0.777,2.529
		c-1.082-0.862-2.17-1.293-3.261-1.293c-0.651,0-1.2,0.153-1.646,0.459c-0.445,0.308-0.668,0.695-0.668,1.164
		c0,0.987,0.56,1.734,1.68,2.242l1.955,0.891c1.197,0.546,2.068,1.168,2.615,1.868c0.546,0.7,0.819,1.576,0.819,2.63
		c0,1.379-0.483,2.459-1.451,3.239c-0.968,0.782-2.31,1.173-4.023,1.173C267.233,118,265.71,117.597,264.282,116.792"/>
</g>
</svg>
