<?xml version="1.0" encoding="utf-8"?>
<!-- Generator: Adobe Illustrator 15.0.2, SVG Export Plug-In . SVG Version: 6.00 Build 0)  -->
<!DOCTYPE svg PUBLIC "-//W3C//DTD SVG 1.1//EN" "http://www.w3.org/Graphics/SVG/1.1/DTD/svg11.dtd">
<svg version="1.1" id="Layer_1" xmlns="http://www.w3.org/2000/svg" xmlns:xlink="http://www.w3.org/1999/xlink"  viewBox="0 0 221.738 95.622" enable-background="new 0 0 221.738 95.622"
	 xml:space="preserve">
<g>
	<defs>
		<rect id="SVGID_1_" y="0" width="221.738" height="95.621"/>
	</defs>
	<clipPath id="SVGID_2_">
		<use xlink:href="#SVGID_1_"  overflow="visible"/>
	</clipPath>
	<path clip-path="url(#SVGID_2_)" fill="#262729" d="M58.875,79.626c1.605,0,2.873,0.438,3.802,1.315
		c0.929,0.878,1.394,2.003,1.394,3.376c0,1.364-0.465,2.487-1.394,3.369c-0.929,0.882-2.197,1.324-3.802,1.324h-3.111v-9.385H58.875
		z M58.859,88.002c1.279,0,2.281-0.346,3.005-1.036c0.724-0.692,1.086-1.574,1.086-2.648c0-1.083-0.362-1.97-1.086-2.661
		c-0.724-0.69-1.726-1.036-3.005-1.036h-1.989v7.382H58.859z"/>
	<path clip-path="url(#SVGID_2_)" fill="#262729" d="M72.561,85.775h-5.926c0.047,0.747,0.314,1.348,0.799,1.8
		c0.485,0.453,1.041,0.681,1.667,0.681c1.13,0,1.914-0.496,2.352-1.485l0.954,0.224c-0.271,0.709-0.694,1.255-1.268,1.633
		s-1.254,0.566-2.038,0.566c-0.953,0-1.775-0.336-2.466-1.009c-0.69-0.672-1.036-1.54-1.036-2.605c0-1.073,0.35-1.948,1.051-2.626
		c0.7-0.677,1.54-1.016,2.52-1.016c0.944,0,1.736,0.32,2.375,0.96c0.64,0.639,0.978,1.468,1.016,2.486V85.775z M67.553,83.443
		c-0.481,0.378-0.773,0.89-0.876,1.534h4.805c-0.093-0.663-0.355-1.18-0.784-1.548c-0.43-0.369-0.939-0.553-1.528-0.553
		C68.573,82.876,68.033,83.065,67.553,83.443"/>
	<path clip-path="url(#SVGID_2_)" fill="#262729" d="M74.89,86.91c0.047,0.448,0.257,0.793,0.63,1.037
		c0.374,0.242,0.841,0.364,1.401,0.364c0.495,0,0.894-0.108,1.198-0.322c0.303-0.215,0.455-0.5,0.455-0.854
		c0-0.495-0.378-0.827-1.134-0.995l-1.583-0.351c-1.196-0.252-1.793-0.84-1.793-1.765c0-0.625,0.237-1.13,0.714-1.512
		c0.476-0.384,1.111-0.575,1.905-0.575c0.757,0,1.382,0.175,1.877,0.525s0.808,0.814,0.938,1.394l-1.022,0.224
		c-0.075-0.382-0.271-0.69-0.589-0.924c-0.317-0.233-0.727-0.35-1.232-0.35c-0.476,0-0.85,0.104-1.12,0.314
		c-0.272,0.21-0.407,0.483-0.407,0.819c0,0.262,0.086,0.465,0.259,0.61c0.173,0.144,0.437,0.259,0.792,0.343l1.666,0.364
		c1.187,0.261,1.779,0.863,1.779,1.807c0,0.672-0.254,1.195-0.763,1.569c-0.509,0.373-1.184,0.56-2.024,0.56
		c-0.822,0-1.509-0.177-2.059-0.532c-0.551-0.354-0.868-0.858-0.952-1.513L74.89,86.91z"/>
	<path clip-path="url(#SVGID_2_)" fill="#262729" d="M82.609,79.513c0.145,0.141,0.217,0.309,0.217,0.506
		c0,0.204-0.069,0.375-0.21,0.511c-0.139,0.135-0.317,0.203-0.532,0.203c-0.205,0-0.378-0.068-0.519-0.203
		c-0.139-0.136-0.21-0.307-0.21-0.511c0-0.197,0.071-0.365,0.21-0.506c0.141-0.14,0.314-0.21,0.519-0.21
		S82.465,79.374,82.609,79.513 M81.552,82.106h1.078v6.905h-1.078V82.106z"/>
	<path clip-path="url(#SVGID_2_)" fill="#262729" d="M91.511,88.451c-0.009,0.999-0.327,1.786-0.953,2.36
		c-0.625,0.574-1.465,0.861-2.521,0.861c-1.681,0-2.806-0.598-3.375-1.793l0.896-0.617c0.252,0.486,0.572,0.849,0.959,1.087
		c0.388,0.237,0.895,0.356,1.52,0.356c0.728,0,1.314-0.217,1.759-0.651c0.443-0.434,0.665-1.016,0.665-1.743v-0.842
		c-0.579,0.758-1.444,1.136-2.592,1.136c-0.934,0-1.734-0.317-2.402-0.953c-0.667-0.634-1.001-1.434-1.001-2.396
		c0-0.952,0.334-1.744,1.001-2.374c0.668-0.631,1.468-0.944,2.402-0.944c1.14,0,2.003,0.373,2.592,1.12v-0.953h1.036L91.511,88.451z
		 M89.739,87c0.481-0.453,0.722-1.034,0.722-1.744s-0.239-1.286-0.715-1.729c-0.476-0.443-1.05-0.665-1.723-0.665
		c-0.719,0-1.319,0.22-1.8,0.658s-0.721,1.018-0.721,1.736c0,0.72,0.24,1.304,0.721,1.751c0.481,0.449,1.081,0.674,1.8,0.674
		C88.687,87.681,89.259,87.454,89.739,87"/>
	<path clip-path="url(#SVGID_2_)" fill="#262729" d="M99.529,82.75c0.509,0.542,0.763,1.251,0.763,2.129v4.133h-1.065v-3.937
		c0-0.644-0.177-1.165-0.532-1.562c-0.354-0.397-0.817-0.596-1.387-0.596c-0.737,0-1.321,0.243-1.751,0.729
		c-0.429,0.485-0.644,1.167-0.644,2.045v3.32h-1.065v-6.906h1.065v1.148c0.589-0.878,1.457-1.315,2.605-1.315
		C98.349,81.938,99.02,82.208,99.529,82.75"/>
	<path clip-path="url(#SVGID_2_)" fill="#262729" d="M112.941,87.533c0.603-0.416,1.024-1.006,1.268-1.771l1.064,0.252
		c-0.289,0.98-0.836,1.756-1.639,2.326c-0.803,0.568-1.746,0.854-2.83,0.854c-1.364,0-2.517-0.472-3.46-1.414
		c-0.943-0.943-1.415-2.097-1.415-3.46c0-1.364,0.472-2.517,1.415-3.46c0.943-0.944,2.096-1.415,3.46-1.415
		c1.074,0,2.015,0.282,2.823,0.847c0.808,0.565,1.356,1.319,1.646,2.264l-1.064,0.308c-0.233-0.747-0.653-1.331-1.261-1.751
		c-0.606-0.42-1.321-0.631-2.143-0.631c-1.055,0-1.945,0.369-2.669,1.107c-0.723,0.737-1.086,1.647-1.086,2.731
		c0,1.073,0.363,1.982,1.086,2.725c0.724,0.741,1.614,1.113,2.669,1.113C111.627,88.157,112.339,87.949,112.941,87.533"/>
	<path clip-path="url(#SVGID_2_)" fill="#262729" d="M123.038,82.966c0.705,0.678,1.058,1.539,1.058,2.585s-0.353,1.912-1.058,2.599
		s-1.57,1.029-2.599,1.029c-1.037,0-1.907-0.343-2.612-1.029s-1.058-1.553-1.058-2.599s0.353-1.907,1.058-2.585
		c0.705-0.676,1.575-1.016,2.612-1.016C121.468,81.951,122.333,82.291,123.038,82.966 M122.281,87.484
		c0.509-0.504,0.764-1.147,0.764-1.933c0-0.775-0.255-1.412-0.764-1.912s-1.123-0.749-1.842-0.749c-0.729,0-1.35,0.249-1.863,0.749
		s-0.771,1.137-0.771,1.912c0,0.785,0.257,1.429,0.771,1.933s1.135,0.756,1.863,0.756C121.158,88.24,121.772,87.988,122.281,87.484"
		/>
	<path clip-path="url(#SVGID_2_)" fill="#262729" d="M136.145,82.659c0.49,0.48,0.735,1.108,0.735,1.884v4.469h-1.064v-4.287
		c0-0.542-0.166-0.978-0.497-1.31c-0.332-0.331-0.759-0.497-1.282-0.497c-0.645,0-1.157,0.227-1.541,0.679
		c-0.383,0.454-0.574,1.082-0.574,1.885v3.53h-1.064v-4.287c0-0.542-0.165-0.978-0.497-1.31c-0.331-0.331-0.754-0.497-1.268-0.497
		c-0.645,0-1.155,0.227-1.534,0.679c-0.378,0.454-0.567,1.082-0.567,1.885v3.53h-1.064v-6.906h1.064v1.052
		c0.523-0.813,1.308-1.22,2.354-1.22c0.531,0,1.006,0.123,1.422,0.371c0.416,0.247,0.727,0.591,0.932,1.03
		c0.579-0.934,1.447-1.401,2.605-1.401C135.04,81.937,135.654,82.177,136.145,82.659"/>
	<path clip-path="url(#SVGID_2_)" fill="#262729" d="M145.392,82.953c0.678,0.678,1.016,1.549,1.016,2.612
		c0,1.065-0.338,1.937-1.016,2.612c-0.677,0.678-1.486,1.016-2.43,1.016c-1.187,0-2.102-0.425-2.746-1.274v3.474h-1.064v-9.287
		h1.064v1.107c0.645-0.851,1.56-1.275,2.746-1.275C143.905,81.937,144.715,82.276,145.392,82.953 M144.629,87.505
		c0.494-0.49,0.742-1.138,0.742-1.94s-0.248-1.452-0.742-1.947c-0.495-0.494-1.107-0.741-1.835-0.741
		c-0.682,0-1.282,0.249-1.801,0.749c-0.518,0.5-0.777,1.146-0.777,1.939c0,0.784,0.26,1.426,0.777,1.926
		c0.519,0.5,1.119,0.749,1.801,0.749C143.521,88.24,144.134,87.995,144.629,87.505"/>
	<path clip-path="url(#SVGID_2_)" fill="#262729" d="M154.983,89.011h-1.064v-1.093c-0.645,0.85-1.56,1.274-2.745,1.274
		c-0.943,0-1.754-0.338-2.431-1.015s-1.016-1.548-1.016-2.613c0-1.063,0.339-1.935,1.016-2.612c0.677-0.677,1.487-1.016,2.431-1.016
		c1.186,0,2.101,0.425,2.745,1.275v-1.107h1.064V89.011z M153.142,87.491c0.519-0.5,0.777-1.142,0.777-1.926
		c0-0.794-0.259-1.44-0.777-1.94s-1.118-0.748-1.8-0.748c-0.729,0-1.34,0.246-1.835,0.741s-0.743,1.145-0.743,1.947
		s0.248,1.45,0.743,1.94c0.495,0.489,1.106,0.735,1.835,0.735C152.023,88.241,152.623,87.991,153.142,87.491"/>
	<path clip-path="url(#SVGID_2_)" fill="#262729" d="M163.012,82.75c0.509,0.542,0.763,1.251,0.763,2.129v4.133h-1.064v-3.937
		c0-0.644-0.178-1.165-0.532-1.562c-0.354-0.397-0.817-0.596-1.387-0.596c-0.737,0-1.321,0.243-1.751,0.729
		s-0.645,1.167-0.645,2.045v3.32h-1.064v-6.906h1.064v1.148c0.589-0.878,1.457-1.315,2.605-1.315
		C161.832,81.938,162.502,82.208,163.012,82.75"/>
	<polygon clip-path="url(#SVGID_2_)" fill="#262729" points="167.918,91.392 166.727,91.392 167.861,88.914 164.766,82.105 
		165.971,82.105 168.436,87.625 170.957,82.105 172.147,82.105 	"/>
	<polygon clip-path="url(#SVGID_2_)" fill="#262729" points="47.982,29.167 29.337,29.167 29.337,5.237 47.875,5.237 47.875,10.309 
		35.23,10.309 35.23,14.809 46.837,14.809 46.837,19.594 35.23,19.594 35.23,24.095 47.982,24.095 	"/>
	<polygon clip-path="url(#SVGID_2_)" fill="#262729" points="76.628,29.167 71.77,29.167 59.662,15.309 59.662,29.167 53.77,29.167 
		53.77,5.237 58.662,5.237 70.77,19.523 70.77,5.237 76.628,5.237 	"/>
	<rect x="91.409" y="14.388" clip-path="url(#SVGID_2_)" fill="#262729" width="87.741" height="5.628"/>
	<rect x="2.496" y="47.152" clip-path="url(#SVGID_2_)" fill="#262729" width="74.137" height="5.626"/>
	<path clip-path="url(#SVGID_2_)" fill="#262729" d="M115.876,47.822c0.096,0.761,0.144,1.49,0.144,2.181
		c0,3.617-1.168,6.6-3.5,8.944c-2.333,2.347-5.297,3.518-8.894,3.518c-3.618,0-6.672-1.201-9.162-3.604
		c-2.488-2.407-3.732-5.371-3.732-8.896c0-3.5,1.233-6.457,3.697-8.875c2.465-2.418,5.493-3.626,9.091-3.626
		c2.736,0,5.166,0.626,7.285,1.876c2.119,1.25,3.584,3.018,4.393,5.303l-5.679,1.643c-1.166-2.285-3.167-3.428-5.999-3.428
		c-1.953,0-3.585,0.68-4.894,2.035c-1.31,1.357-1.965,3.05-1.965,5.072c0,2.025,0.673,3.72,2.018,5.089
		c1.345,1.37,3.017,2.056,5.018,2.056c1.548,0,2.874-0.382,3.982-1.145c1.109-0.761,1.886-1.809,2.34-3.141h-7.322v-5.002H115.876z"
		/>
	<path clip-path="url(#SVGID_2_)" fill="#262729" d="M136.313,61.931l-1.679-4.356h-10.073l-1.677,4.356h-6.321l10-23.931h6.035
		L142.6,61.931H136.313z M129.599,44.644l-3.035,7.858h6.105L129.599,44.644z"/>
	<path clip-path="url(#SVGID_2_)" fill="#262729" d="M161.005,61.931l-7.214-8.215h-1.713v8.215h-5.895V38h12.107
		c2.597,0,4.681,0.72,6.25,2.162c1.572,1.44,2.358,3.328,2.358,5.661c0,1.952-0.559,3.6-1.679,4.946
		c-1.119,1.346-2.656,2.231-4.608,2.661l7.502,8.5H161.005z M157.648,48.788c1.048,0,1.888-0.263,2.521-0.787
		c0.629-0.524,0.944-1.226,0.944-2.106c0-0.859-0.315-1.549-0.944-2.072c-0.633-0.525-1.473-0.786-2.521-0.786h-5.57v5.751H157.648z
		"/>
	<path clip-path="url(#SVGID_2_)" fill="#262729" d="M181.8,38.001c3.928,0,7.095,1.102,9.5,3.303
		c2.405,2.204,3.606,5.091,3.606,8.662c0,3.572-1.201,6.46-3.606,8.662s-5.572,3.303-9.5,3.303h-9.466V38.001H181.8z
		 M181.585,56.823c2.238,0,4.031-0.624,5.375-1.874c1.346-1.25,2.019-2.912,2.019-4.983c0-2.069-0.673-3.732-2.019-4.981
		c-1.344-1.25-3.137-1.876-5.375-1.876h-3.356v13.715H181.585z"/>
	<polygon clip-path="url(#SVGID_2_)" fill="#262729" points="217.584,61.93 198.939,61.93 198.939,38 217.477,38 217.477,43.072 
		204.835,43.072 204.835,47.573 216.442,47.573 216.442,52.359 204.835,52.359 204.835,56.86 217.584,56.86 	"/>
</g>
</svg>
