<?xml version="1.0" encoding="utf-8"?>
<!-- Generator: Adobe Illustrator 15.0.2, SVG Export Plug-In . SVG Version: 6.00 Build 0)  -->
<!DOCTYPE svg PUBLIC "-//W3C//DTD SVG 1.1//EN" "http://www.w3.org/Graphics/SVG/1.1/DTD/svg11.dtd">
<svg version="1.1" id="Ebene_1" xmlns="http://www.w3.org/2000/svg" xmlns:xlink="http://www.w3.org/1999/xlink"
	viewBox="0 0 301 74" enable-background="new 0 0 301 74" xml:space="preserve">
<g>
	<g>
		<path fill="#DA1F3D" d="M85.135,58.825v-7.316h1.387v7.316c0,2.477,0.436,3.111,2.158,3.111c0.567,0,1.201-0.168,1.52-0.285
			l1.47-0.568v-9.574h1.354v9.727c0,0.633,0.1,1.77,0.1,1.77h-0.951c-0.117-0.184-0.252-0.418-0.367-0.768l-1.621,0.65
			c-0.42,0.168-1.137,0.352-1.723,0.352C85.87,63.239,85.135,61.983,85.135,58.825z"/>
		<path fill="#DA1F3D" d="M95.93,56.372c0-0.586-0.099-1.723-0.099-1.723h0.883c0.15,0.25,0.235,0.416,0.369,0.803l1.47-0.736
			c0.403-0.199,0.837-0.301,1.303-0.301c1.34,0,2.208,0.65,2.208,2.49v6.1h-1.286v-5.6c0-1.336-0.219-1.754-1.205-1.754
			c-0.467,0-0.751,0.135-0.751,0.135L97.2,56.452v6.553h-1.27V56.372z"/>
		<path fill="#DA1F3D" d="M104.403,52.292c0-0.518,0.417-0.885,0.869-0.885c0.467,0,0.885,0.367,0.885,0.885
			c0,0.469-0.418,0.887-0.885,0.887C104.82,53.179,104.403,52.761,104.403,52.292z M104.635,54.649h1.271v8.355h-1.271V54.649z"/>
		<path fill="#DA1F3D" d="M107.645,54.649h1.419l2.175,6.602l0.117,0.533l0.117-0.533l1.887-6.602h1.289l-2.609,8.355h-1.504
			L107.645,54.649z"/>
		<path fill="#DA1F3D" d="M115.815,58.911c0-3.961,1.954-4.496,3.192-4.496c1.372,0,3.192,0.469,3.192,3.609v1.07h-5.063
			c0.051,2.406,0.699,2.941,1.937,2.941c1.238,0,2.54-0.584,2.54-0.584l0.419,1.018c0,0-1.305,0.77-3.209,0.77
			C117.588,63.239,115.815,62.821,115.815,58.911z M120.878,58.024c0-1.871-0.75-2.525-1.805-2.525
			c-1.171,0-1.886,0.756-1.937,2.525H120.878z"/>
		<path fill="#DA1F3D" d="M124.438,56.187c0-0.369-0.101-1.537-0.101-1.537h0.917c0.136,0.283,0.269,0.719,0.353,1.07l1.104-0.902
			c0.301-0.234,0.584-0.402,1.171-0.402c0.301,0,0.6,0.084,0.818,0.184l-0.385,1.219c-0.168-0.049-0.351-0.098-0.601-0.098
			c-0.352,0-0.638,0.199-0.654,0.199l-1.353,0.869v6.217h-1.27V56.187z"/>
		<path fill="#DA1F3D" d="M129.583,62.437l0.418-1.02c0,0,1.303,0.619,2.541,0.619c0.768,0,1.655-0.135,1.655-1.17
			c0-0.42-0.201-0.869-0.687-1.104c-0.618-0.301-1.504-0.617-2.324-1.004c-0.834-0.416-1.304-0.984-1.304-2.105
			c0-1.369,0.971-2.238,2.628-2.238c0.884,0,1.902,0.25,2.688,0.719l-0.418,1.02c-0.584-0.367-1.505-0.602-2.271-0.602
			c-0.988,0-1.425,0.4-1.425,1.121c0,0.4,0.185,0.699,0.487,0.883c0.718,0.42,1.688,0.703,2.64,1.188
			c0.72,0.352,1.271,0.938,1.271,2.123c0,1.654-1.153,2.373-2.691,2.373C130.888,63.239,129.583,62.437,129.583,62.437z"/>
		<path fill="#DA1F3D" d="M137.504,52.292c0-0.518,0.419-0.885,0.87-0.885c0.468,0,0.885,0.367,0.885,0.885
			c0,0.469-0.417,0.887-0.885,0.887C137.923,53.179,137.504,52.761,137.504,52.292z M137.739,54.649h1.27v8.355h-1.27V54.649z"/>
		<path fill="#DA1F3D" d="M142.183,60.915v-5.162h-1.27v-1.104h1.27v-2.09l1.27-0.25v2.34h1.989v1.104h-1.989v5.18
			c0,0.955,0.118,1.188,0.787,1.188c0.468,0,1.152-0.219,1.152-0.219l0.301,0.92c0,0-0.953,0.387-1.654,0.387
			C142.668,63.208,142.183,62.806,142.183,60.915z"/>
		<path fill="#DA1F3D" d="M146.36,66.433l0.302-0.953c0,0,0.585,0.166,1.122,0.166c0.767,0,1.136-0.418,1.369-1.068l0.468-1.572
			l-3.026-8.355h1.438l2.124,6.133l0.1,0.535l0.101-0.535l1.921-6.133h1.27l-3.309,10.463c-0.366,1.152-1.136,1.619-2.139,1.619
			C147.199,66.731,146.36,66.433,146.36,66.433z"/>
		<path fill="#DA1F3D" d="M159.063,58.911c0-3.846,2.139-4.496,3.492-4.496c1.371,0,3.51,0.65,3.51,4.496
			c0,3.676-2.072,4.328-3.51,4.328C161.133,63.239,159.063,62.587,159.063,58.911z M164.727,58.911c0-2.523-0.902-3.393-2.223-3.393
			c-1.188,0-2.107,0.869-2.107,3.393c0,2.541,0.92,3.225,2.223,3.225C163.756,62.136,164.727,61.452,164.727,58.911z"/>
		<path fill="#DA1F3D" d="M168.734,55.753h-1.252v-1.104h1.252v-1.84c0-1.535,0.721-2.305,1.906-2.305
			c0.904,0,1.738,0.35,1.738,0.35l-0.299,0.902c0,0-0.586-0.166-1.189-0.166c-0.65,0-0.885,0.416-0.885,1.354v1.705h2.006v1.104
			h-2.006v7.252h-1.271V55.753z"/>
		<path fill="#DA1F3D" d="M180.883,51.509h1.438l3.879,11.496h-1.521l-1.053-3.141h-4.279l-1.035,3.141h-1.354L180.883,51.509z
			 M183.258,58.743l-1.621-4.947l-0.133-0.818l-0.102,0.818l-1.672,4.947H183.258z"/>
		<path fill="#DA1F3D" d="M187.92,56.421c0-0.635-0.102-1.771-0.102-1.771h0.885c0.117,0.184,0.186,0.352,0.285,0.602l1.555-0.602
			c0,0,0.518-0.234,1.121-0.234c1.451,0,2.639,1.119,2.639,4.41c0,3.744-2.037,4.414-3.324,4.414c-0.803,0-1.355-0.25-1.789-0.518
			v3.727l-1.27,0.283V56.421z M192.967,58.825c0-1.635-0.354-3.242-1.439-3.242c-0.482,0-0.852,0.152-0.852,0.152l-1.486,0.484
			v5.299c0.268,0.25,0.734,0.535,1.604,0.535C192.063,62.054,192.967,61.317,192.967,58.825z"/>
		<path fill="#DA1F3D" d="M196.625,56.421c0-0.635-0.102-1.771-0.102-1.771h0.887c0.115,0.184,0.184,0.352,0.285,0.602l1.553-0.602
			c0,0,0.52-0.234,1.121-0.234c1.453,0,2.641,1.119,2.641,4.41c0,3.744-2.041,4.414-3.326,4.414c-0.803,0-1.354-0.25-1.789-0.518
			v3.727l-1.27,0.283V56.421z M201.672,58.825c0-1.635-0.35-3.242-1.436-3.242c-0.486,0-0.854,0.152-0.854,0.152l-1.488,0.484v5.299
			c0.27,0.25,0.736,0.535,1.604,0.535C200.768,62.054,201.672,61.317,201.672,58.825z"/>
		<path fill="#DA1F3D" d="M205.332,61.032V50.806l1.27-0.301v10.428c0,0.818,0.066,1.188,0.533,1.188c0.42,0,0.82-0.137,0.82-0.137
			l0.316,0.873c0,0-0.648,0.352-1.387,0.352C205.699,63.208,205.332,62.604,205.332,61.032z"/>
		<path fill="#DA1F3D" d="M209.693,52.292c0-0.518,0.414-0.885,0.867-0.885c0.467,0,0.887,0.367,0.887,0.885
			c0,0.469-0.42,0.887-0.887,0.887C210.107,53.179,209.693,52.761,209.693,52.292z M209.928,54.649h1.27v8.355h-1.27V54.649z"/>
		<path fill="#DA1F3D" d="M213.451,58.911c0-3.961,1.955-4.496,3.193-4.496c1.369,0,3.191,0.469,3.191,3.609v1.07h-5.064
			c0.051,2.406,0.703,2.941,1.939,2.941c1.238,0,2.541-0.584,2.541-0.584l0.418,1.018c0,0-1.305,0.77-3.209,0.77
			C215.225,63.239,213.451,62.821,213.451,58.911z M218.516,58.024c0-1.871-0.752-2.525-1.805-2.525
			c-1.172,0-1.889,0.756-1.939,2.525H218.516z"/>
		<path fill="#DA1F3D" d="M221.758,58.843c0-3.809,1.922-4.428,3.375-4.428c0.818,0,1.453,0.336,1.84,0.602v-4.211l1.285-0.301
			v10.73c0,0.633,0.102,1.77,0.102,1.77h-0.904c-0.135-0.199-0.232-0.385-0.334-0.617l-1.82,0.686
			c-0.268,0.1-0.604,0.166-0.92,0.166C222.943,63.239,221.758,62.12,221.758,58.843z M225.318,61.954l1.654-0.484v-5.301
			c-0.268-0.234-0.771-0.586-1.639-0.586c-1.32,0-2.258,0.721-2.258,3.26c0,1.021,0.1,3.225,1.422,3.225
			C224.881,62.067,225.318,61.954,225.318,61.954z"/>
		<path fill="#DA1F3D" d="M234.355,62.37l0.436-1.135c0.736,0.334,1.67,0.734,3.008,0.734c1.422,0,2.191-0.635,2.191-1.904
			c0-1.055-0.504-1.572-1.104-1.855c-0.906-0.42-1.605-0.637-2.592-1.119c-1.053-0.535-1.721-1.223-1.721-2.809
			c0-1.855,1.303-3.008,3.24-3.008c1.205,0,2.324,0.367,3.309,0.801l-0.482,1.055c-0.768-0.32-1.705-0.654-2.793-0.654
			c-1.252,0-1.904,0.721-1.904,1.822c0,0.82,0.385,1.27,0.854,1.52c0.885,0.486,1.621,0.703,2.689,1.188
			c1.004,0.451,1.955,1.271,1.955,3.076c0,2.021-1.42,3.158-3.477,3.158C236.295,63.239,235.057,62.704,234.355,62.37z"/>
		<path fill="#DA1F3D" d="M243.096,58.743c0-3.91,2.123-4.328,3.193-4.328c1.051,0,2.004,0.318,2.438,0.518l-0.434,1.002
			c-0.383-0.166-1.135-0.367-1.953-0.367c-1.172,0-1.924,0.871-1.924,3.227c0,2.289,0.584,3.26,1.855,3.26
			c1.035,0,1.756-0.27,2.172-0.451l0.4,0.967c-0.5,0.252-1.402,0.67-2.807,0.67C244.699,63.239,243.096,62.653,243.096,58.743z"/>
		<path fill="#DA1F3D" d="M250.48,52.292c0-0.518,0.418-0.885,0.869-0.885c0.469,0,0.889,0.367,0.889,0.885
			c0,0.469-0.42,0.887-0.889,0.887C250.898,53.179,250.48,52.761,250.48,52.292z M250.717,54.649h1.268v8.355h-1.268V54.649z"/>
		<path fill="#DA1F3D" d="M254.242,58.911c0-3.961,1.955-4.496,3.191-4.496c1.369,0,3.191,0.469,3.191,3.609v1.07h-5.063
			c0.051,2.406,0.699,2.941,1.938,2.941c1.236,0,2.539-0.584,2.539-0.584l0.42,1.018c0,0-1.307,0.77-3.209,0.77
			C256.012,63.239,254.242,62.821,254.242,58.911z M259.307,58.024c0-1.871-0.752-2.525-1.807-2.525
			c-1.17,0-1.887,0.756-1.938,2.525H259.307z"/>
		<path fill="#DA1F3D" d="M262.865,56.372c0-0.586-0.102-1.723-0.102-1.723h0.885c0.15,0.25,0.234,0.416,0.367,0.803l1.473-0.736
			c0.4-0.199,0.834-0.301,1.301-0.301c1.338,0,2.207,0.65,2.207,2.49v6.1h-1.285v-5.6c0-1.336-0.219-1.754-1.205-1.754
			c-0.467,0-0.752,0.135-0.752,0.135l-1.621,0.666v6.553h-1.268V56.372z"/>
		<path fill="#DA1F3D" d="M271.152,58.743c0-3.91,2.121-4.328,3.193-4.328c1.051,0,2.004,0.318,2.439,0.518l-0.436,1.002
			c-0.383-0.166-1.139-0.367-1.955-0.367c-1.172,0-1.924,0.871-1.924,3.227c0,2.289,0.586,3.26,1.855,3.26
			c1.035,0,1.758-0.27,2.174-0.451l0.4,0.967c-0.5,0.252-1.402,0.67-2.809,0.67C272.756,63.239,271.152,62.653,271.152,58.743z"/>
		<path fill="#DA1F3D" d="M278.354,58.911c0-3.961,1.955-4.496,3.193-4.496c1.369,0,3.191,0.469,3.191,3.609v1.07h-5.066
			c0.051,2.406,0.705,2.941,1.939,2.941c1.238,0,2.541-0.584,2.541-0.584l0.42,1.018c0,0-1.305,0.77-3.213,0.77
			C280.127,63.239,278.354,62.821,278.354,58.911z M283.418,58.024c0-1.871-0.752-2.525-1.807-2.525
			c-1.17,0-1.889,0.756-1.939,2.525H283.418z"/>
		<path fill="#DA1F3D" d="M286.26,62.437l0.416-1.02c0,0,1.305,0.619,2.539,0.619c0.771,0,1.654-0.135,1.654-1.17
			c0-0.42-0.201-0.869-0.682-1.104c-0.621-0.301-1.504-0.617-2.326-1.004c-0.836-0.416-1.303-0.984-1.303-2.105
			c0-1.369,0.971-2.238,2.623-2.238c0.889,0,1.906,0.25,2.691,0.719l-0.418,1.02c-0.586-0.367-1.502-0.602-2.273-0.602
			c-0.986,0-1.418,0.4-1.418,1.121c0,0.4,0.182,0.699,0.482,0.883c0.721,0.42,1.688,0.703,2.643,1.188
			c0.719,0.352,1.27,0.938,1.27,2.123c0,1.654-1.152,2.373-2.693,2.373C287.561,63.239,286.26,62.437,286.26,62.437z"/>
	</g>
	<polygon points="8.693,9.694 24.682,9.694 24.682,13.712 13.332,13.712 13.332,22.989 24.019,22.989 24.019,26.92 13.332,26.92 
		13.332,40.083 8.693,40.083 	"/>
	<polygon points="30.734,9.694 35.37,9.694 35.37,22.193 46.457,22.193 46.457,9.694 51.095,9.694 51.095,40.083 46.457,40.083 
		46.457,25.993 35.37,25.993 35.37,40.083 30.734,40.083 	"/>
	<polygon fill="#DA1F3D" points="65.897,9.694 65.897,23.839 65.897,48.829 65.897,62.972 70.226,62.972 70.226,48.829 
		70.226,23.839 70.226,9.694 	"/>
	<path d="M137.309,9.694h-5.081l-9.935,30.389h4.636l2.429-7.819h10.248l2.476,7.819h5.165L137.309,9.694z M130.419,28.643
		l3.708-11.397l0.398-2.693l0.441,2.693l3.577,11.397H130.419z"/>
	<g>
		<path d="M108.157,9.075c-6.58,0-11.749,3.27-11.749,15.99c0,12.809,4.903,15.635,11.749,15.635
			c6.804,0,11.707-2.826,11.707-15.635C119.864,12.345,114.916,9.075,108.157,9.075 M108.157,36.814
			c-5.606,0-6.933-4.683-6.933-11.749c0-7.509,1.5-12.102,6.933-12.102c5.521,0,6.893,4.593,6.893,12.102
			C115.049,32.131,113.722,36.814,108.157,36.814"/>
		<polygon points="151.104,9.694 157.553,9.694 167.49,30.719 168.682,34.959 168.418,30.585 168.418,9.694 173.057,9.694 
			173.057,40.083 167.049,40.083 156.801,18.881 155.387,14.464 155.695,18.924 155.695,40.083 151.104,40.083 		"/>
		<polygon points="180.387,9.694 186.836,9.694 196.773,30.719 197.965,34.959 197.699,30.585 197.699,9.694 202.338,9.694 
			202.338,40.083 196.332,40.083 186.084,18.881 184.672,14.464 184.982,18.924 184.982,40.083 180.387,40.083 		"/>
		<polygon points="209.67,9.694 226.367,9.694 226.367,13.712 214.307,13.712 214.307,22.371 225.262,22.371 225.262,26.301 
			214.307,26.301 214.307,35.841 226.807,35.841 226.807,40.083 209.67,40.083 		"/>
		<path d="M232.416,28.952V9.695h4.684v19.168c0,6.051,1.016,7.554,4.99,7.554c1.412,0,2.871-0.354,3.842-0.707l3.316-1.236V9.695
			h4.633v25.441c0,1.589,0.266,4.947,0.266,4.947h-3.314c-0.352-0.531-0.703-1.15-1.057-2.033l-4.021,1.68
			c-1.232,0.529-3.09,0.971-4.727,0.971C234.225,40.7,232.416,37.342,232.416,28.952"/>
		<polygon points="262.76,9.694 269.605,9.694 275.746,31.955 276.363,35.71 276.982,31.955 282.943,9.694 289.57,9.694 
			292.043,40.083 287.275,40.083 285.637,18.924 285.508,14.11 284.713,18.924 278.662,40.083 273.713,40.083 267.75,18.924 
			266.865,14.11 266.734,18.924 265.059,40.083 260.332,40.083 		"/>
		<path d="M85.029,9.694v24.054c0,4.683-2.358,5.759-5.097,6.953l1.411,3.506c4.007-1.291,8.368-2.861,8.368-10.018V9.694H85.029z"
			/>
	</g>
</g>
</svg>
