<?xml version="1.0" encoding="utf-8"?>
<!-- Generator: Adobe Illustrator 15.0.2, SVG Export Plug-In . SVG Version: 6.00 Build 0)  -->
<!DOCTYPE svg PUBLIC "-//W3C//DTD SVG 1.1//EN" "http://www.w3.org/Graphics/SVG/1.1/DTD/svg11.dtd">
<svg version="1.1" id="Ebene_1" xmlns="http://www.w3.org/2000/svg" xmlns:xlink="http://www.w3.org/1999/xlink" viewBox="0 0 370.667 48" enable-background="new 0 0 370.667 48" xml:space="preserve">
<path fill="#12100B" d="M161.034,10.269L161.034,10.269c-1.771-1.059-4.483-1.49-9.362-1.49h-14.524v29.806h6.454
	c0,0,0-8.887,0-10.525c1.595,0,8.34,0,8.34,0c4.052,0,7.126-0.137,9.797-1.9c2.458-1.645,3.65-4.167,3.65-7.718
	C165.389,14.804,163.883,11.979,161.034,10.269z M151.984,23.036c0,0-6.787,0-8.383,0v-9.193c1.58,0,7.98,0,7.98,0
	c4.744,0,6.593,1.289,6.593,4.598C158.175,21.533,156.15,23.036,151.984,23.036z M119.623,20.382
	c-1.335-1.937-7.996-11.603-7.996-11.603l-7.23-0.001c0,0,11.742,16.105,12.112,16.615c0,0.617,0,13.191,0,13.191h6.454
	c0,0,0-12.566,0-13.189c0.377-0.512,12.244-16.617,12.244-16.617h-7.45C127.757,8.778,120.975,18.453,119.623,20.382z
	 M168.317,24.227c0,5.459,1.591,9.301,4.862,11.748c2.927,2.193,5.748,2.609,9.927,2.609h11.258v-4.939h-10.943
	c-5.496,0-7.757-2.182-7.802-7.529c0,0-0.001-0.072-0.001-0.152c1.805,0,18.747,0,18.747,0v-4.94c0,0-16.822,0-18.708,0
	c0.002-0.036,0.009-0.158,0.009-0.158c0.272-4.81,2.809-7.147,7.756-7.147h10.943V8.778h-11.078
	C173.074,8.778,168.317,13.688,168.317,24.227z M96.027,20.982H83.332c0-1.686,0-12.204,0-12.204h-6.451v29.806h6.451
	c0,0,0-10.887,0-12.58h12.695c0,1.693,0,12.58,0,12.58h6.453V8.778h-6.453C96.027,8.778,96.027,19.297,96.027,20.982z
	 M221.269,26.008c4.104-0.828,6.363-3.783,6.363-8.323c0-6.16-3.416-8.907-11.078-8.907h-16.49v29.806h6.453c0,0,0-10.15,0-11.826
	h8.197c0.535,0.896,7.07,11.826,7.07,11.826h7.246c0,0-6.711-10.543-7.979-12.533C221.101,26.042,221.269,26.008,221.269,26.008z
	 M214.945,21.737c0,0-6.828,0-8.428,0v-7.895c1.6,0,8.428,0,8.428,0c3.986,0,6.146,0.626,6.146,3.927
	C221.091,20.699,219.482,21.737,214.945,21.737z M355.238,13.718h10.943V8.778h-11.078c-10.213,0-14.971,4.909-14.971,15.449
	c0,5.459,1.592,9.303,4.863,11.748c2.926,2.193,5.746,2.609,9.93,2.609h11.256v-4.939h-10.943c-5.498,0-7.76-2.182-7.801-7.529
	c0,0-0.002-0.072-0.002-0.152c1.807,0,18.746,0,18.746,0v-4.94c0,0-16.826,0-18.711,0c0.002-0.036,0.01-0.159,0.01-0.159
	C347.753,16.056,350.291,13.718,355.238,13.718z M321.908,31.44c-1.514-3.512-9.764-22.662-9.764-22.662h-7.313l13.865,29.808
	l6.783-0.002l13.283-29.806h-6.871C331.892,8.778,323.451,27.938,321.908,31.44z M272.742,8.778c0,0-5.592,18.666-7.045,23.513
	c-1.506-4.836-7.314-23.513-7.314-23.513h-7.738c0,0-5.014,18.531-6.365,23.529c-1.588-4.949-7.547-23.528-7.547-23.528
	l-6.926-0.001l10.584,29.806h8.01c0,0,4.742-17.784,6.1-22.875c1.541,5.057,6.967,22.875,6.967,22.875h8.057l9.83-29.806H272.742z
	 M295.664,8.778h-6.318L275.88,38.584h6.82c0,0,2.445-6.123,2.865-7.17h14.162c0.426,1.033,2.951,7.17,2.951,7.17h7.18
	L296.308,8.777L295.664,8.778z M287.636,26.348c0.896-2.207,4.781-11.781,4.781-11.781s0.057-0.14,0.137-0.338
	c1.242,2.947,4.285,10.169,5.105,12.119H287.636z"/>
<path fill="#004F9F" d="M42.876,26.848c-28.61,0-7.416,14.428-7.416,14.428L5.486,25.821c0.273,6.08,2.283,10.537,6.13,13.41
	c3.922,2.945,7.677,3.311,12.556,3.311h22.204c4.874,0,8.63-0.365,12.554-3.311c3.628-2.709,5.625-6.824,6.068-12.383
	C58.994,26.848,51.023,26.848,42.876,26.848z"/>
<path fill="#004F9F" d="M35.088,6.088l29.903,15.416C64.16,10.137,58.134,4.822,46.152,4.822H24.396
	c-11.631,0-17.648,5.005-18.753,15.692h22.028C56.283,20.515,35.088,6.088,35.088,6.088z"/>
</svg>
