<?xml version="1.0" encoding="UTF-8" standalone="no"?>
<svg
   xmlns:dc="http://purl.org/dc/elements/1.1/"
   xmlns:cc="http://creativecommons.org/ns#"
   xmlns:rdf="http://www.w3.org/1999/02/22-rdf-syntax-ns#"
   xmlns:svg="http://www.w3.org/2000/svg"
   xmlns="http://www.w3.org/2000/svg"
   viewBox="0 0 1050 600"
   xml:space="preserve"
   version="1.1"
   id="svg2"><metadata
     id="metadata8"><rdf:RDF><cc:Work
         rdf:about=""><dc:format>image/svg+xml</dc:format><dc:type
           rdf:resource="http://purl.org/dc/dcmitype/StillImage" /></cc:Work></rdf:RDF></metadata><defs
     id="defs6" /><g
     transform="matrix(1.25,0,0,-1.25,0,600)"
     id="g10"><g
       transform="scale(0.1,0.1)"
       id="g12"><path
         id="path14"
         style="fill:#4ba6e1;fill-opacity:1;fill-rule:nonzero;stroke:none"
         d="m 6600,2100 c -165.68,0 -300,-134.32 -300,-300 0,-165.68 134.32,-300 300,-300 165.68,0 300,134.32 300,300 0,165.68 -134.32,300 -300,300 M 1200,4500 c -165.68,0 -300,-134.32 -300,-300 0,-165.68 134.32,-300 300,-300 165.69,0 300,134.32 300,300 0,165.68 -134.31,300 -300,300 M 6000,2700 c -165.68,0 -300,-134.32 -300,-300 0,-165.68 134.32,-300 300,-300 165.68,0 300,134.32 300,300 0,165.68 -134.32,300 -300,300 M 2059.5,2249.42 c -51.8,-89.5 -148.6,-149.68 -259.5,-149.68 111.2,0 208.2,-60.51 259.9,-150.4 25.5,43.98 40.1,95.18 40.1,149.68 0,54.81 -14.7,106.2 -40.5,150.4 M 1800,2099.74 c -111.1,0 -208.2,-60.51 -259.9,-150.4 -25.5,43.98 -40.1,95.18 -40.1,149.68 0,54.81 14.7,106.2 40.5,150.4 51.8,-89.5 148.7,-149.68 259.5,-149.68" /><path
         id="path16"
         style="fill:#d9333c;fill-opacity:1;fill-rule:nonzero;stroke:none"
         d="m 6900,2100.04 c 0,-54.6 -14.6,-105.9 -40.3,-150 -51.8,89.71 -148.69,150 -259.7,150 111.01,0 207.9,60.3 259.7,150 25.7,-44.09 40.3,-95.4 40.3,-150 m -1200.03,0 c 0,-54.6 -14.6,-105.9 -40.3,-150 25.7,-44.09 40.3,-95.4 40.3,-150 0,-165.69 -134.32,-300 -300,-300 -165.7,0 -300,134.31 -300,300 0,54.6 14.6,105.91 40.3,150 -25.7,44.1 -40.3,95.4 -40.3,150 0,54.6 14.6,105.91 40.3,150 -25.7,44.1 -40.3,95.4 -40.3,150 0,165.61 134.3,300 300,300 165.68,0 300,-134.39 300,-300 0,-54.6 -14.6,-105.9 -40.3,-150 25.7,-44.09 40.3,-95.4 40.3,-150 M 7930,3600.01 c 0,-165.7 -134.32,-300 -300,-300 -165.68,0 -300,134.3 -300,300 0,165.67 134.32,300 300,300 165.68,0 300,-134.33 300,-300 m -5830,-1200 C 2100,2234.32 1965.69,2100 1800,2100 c -165.68,0 -300,134.32 -300,300.01 0,165.67 134.32,300 300,300 165.69,0 300,-134.33 300,-300 m 4800,300.03 c 0,-54.59 -14.6,-105.9 -40.3,-150 -51.8,89.7 -148.69,150 -259.7,150 111.01,0 207.9,60.3 259.7,150 25.7,-44.1 40.3,-95.4 40.3,-150 m -559.7,150 c -25.7,-44.1 -40.3,-95.4 -40.3,-150 0,-54.59 14.6,-105.9 40.3,-150 51.8,89.7 148.69,150 259.7,150 -111.01,0 -207.9,60.3 -259.7,150" /><path
         id="path18"
         style="fill:#121c31;fill-opacity:1;fill-rule:nonzero;stroke:none"
         d="m 6000,2700.04 c -165.7,0 -300,-134.4 -300,-300 0,165.6 -134.3,300 -300,300 -165.7,0 -300,134.31 -300,300 0,165.6 134.3,300 300,300 165.7,0 300,-134.4 300,-300 165.7,0 300,-134.4 300,-300 m 900,-300 c 0,-165.69 -134.3,-300 -300,-300 -165.7,0 -300,-134.4 -300,-300 -165.7,0 -300,134.31 -300,300 165.7,0 300,134.31 300,300 0,165.6 134.3,300 300,300 165.7,0 300,-134.4 300,-300 m 0,599.96 c 0,-165.69 -134.32,-300 -300,-300 -165.68,0 -300,134.31 -300,300 0,165.68 134.32,300 300,300 165.68,0 300,-134.32 300,-300 M 4500,660 c 0,-165.668 -134.32,-300 -300,-300 -165.68,0 -300,134.332 -300,300 0,165.68 134.32,300 300,300 165.68,0 300,-134.32 300,-300 M 2100,1800 c 0,-165.68 -134.31,-300 -300,-300 -165.68,0 -300,134.32 -300,300 0,165.68 134.32,300 300,300 165.69,0 300,-134.32 300,-300 m 0,1200 c 0,-165.69 -134.31,-300 -300,-300 -165.68,0 -300,134.31 -300,300 0,165.68 134.32,300 300,300 165.69,0 300,-134.32 300,-300 m 1500,-900 c -165.7,0 -300,134.31 -300,300 0,165.69 134.3,300 300,300 165.7,0 300,-134.31 300,-300 0,-165.69 -134.3,-300 -300,-300 m 0,1200 c -497,0 -900,-402.9 -900,-900 0,-497.11 403,-900 900,-900 497.1,0 900,402.89 900,900 0,497.1 -402.9,900 -900,900" /></g></g></svg>
