<?xml version="1.0" encoding="utf-8"?>
<!-- Generator: Adobe Illustrator 15.0.2, SVG Export Plug-In . SVG Version: 6.00 Build 0)  -->
<!DOCTYPE svg PUBLIC "-//W3C//DTD SVG 1.1//EN" "http://www.w3.org/Graphics/SVG/1.1/DTD/svg11.dtd">
<svg version="1.1"
	 id="svg2" sodipodi:docname="isn-Logo_4C_0-89-65-0.svg" inkscape:version="0.92.2 (5c3e80d, 2017-08-06)" xmlns:inkscape="http://www.inkscape.org/namespaces/inkscape" xmlns:sodipodi="http://sodipodi.sourceforge.net/DTD/sodipodi-0.dtd" xmlns:svg="http://www.w3.org/2000/svg" xmlns:rdf="http://www.w3.org/1999/02/22-rdf-syntax-ns#" xmlns:cc="http://creativecommons.org/ns#" xmlns:dc="http://purl.org/dc/elements/1.1/"
	 xmlns="http://www.w3.org/2000/svg" xmlns:xlink="http://www.w3.org/1999/xlink"  viewBox="-4.32 -5.267 311 167" enable-background="new -4.32 -5.267 311 167" xml:space="preserve">
<sodipodi:namedview  id="namedview4" inkscape:window-maximized="0" inkscape:current-layer="g10" inkscape:window-y="1248" pagecolor="#ffffff" bordercolor="#666666" borderopacity="1" objecttolerance="10" gridtolerance="10" guidetolerance="10" showgrid="false" inkscape:zoom="1.5083084" inkscape:cx="151.17999" inkscape:cy="78.233337" inkscape:pageopacity="0" inkscape:pageshadow="2" inkscape:window-width="1884" inkscape:window-height="1282" inkscape:window-x="2526">
	</sodipodi:namedview>
<g id="g10" transform="matrix(1.3333333,0,0,-1.3333333,0,156.46667)" inkscape:label="ink_ext_XXXXXX" inkscape:groupmode="layer">
	<g id="g12" transform="scale(0.1)">
		<path id="path14" inkscape:connector-curvature="0" fill="#EF2B4A" d="M2188.341,118.629l79.153,100.964h-82.632l-50.603-70.876
			h-16.348v170.962h-68.262V5.675h68.262v82.632h14.612l52.756-82.632h82.434L2188.341,118.629z M2249.857,515.104
			c0.864,4.578,1.289,14.18,1.289,21.167c-0.22,66.929-43.616,112.72-107.051,112.72c-64.995,0-109.695-46.663-109.695-114.038
			c0-66.724,45.579-111.431,112.727-111.431c39.478,0,71.982,12.869,94.219,35.112l-44.048,40.994
			c-13.528-12.209-30.762-18.757-46.67-18.757c-23.547,0-40.129,10.913-45.791,34.233H2249.857z M2182.899,558.288h-77.849
			c5.237,21.145,18.113,32.699,39.25,32.699C2164.164,590.987,2177.465,579.66,2182.899,558.288 M2173.085,852.714h68.262v140.424
			c0,49.501-33.149,79.373-75.894,79.373c-28.55,0-50.142-10.25-63.677-32.699v26.818h-65.391V852.714h68.232v115.137
			c0,27.689,15.688,40.558,34.658,40.558c21.152,0,33.809-14.18,33.809-39.478V852.714z M1873.48,536.271
			c0,30.732,20.273,49.043,44.033,49.043c16.582,0,28.806-6.753,39.492-20.493l53.416,37.291
			c-20.5,29.213-51.672,46.879-91.37,46.879c-68.247,0-115.356-47.311-115.356-112.72c0-65.427,47.109-112.749,115.356-112.749
			c39.697,0,71.074,17.446,91.589,46.458l-53.21,37.925c-10.679-13.513-24.192-20.713-40.342-20.713
			C1893.329,487.192,1873.48,505.304,1873.48,536.271 M1991.02,959.776c0,64.764-49.292,112.734-116.221,112.734
			c-66.738,0-116.016-47.97-116.016-112.734c0-64.757,49.277-112.723,116.016-112.723
			C1941.728,847.052,1991.02,895.019,1991.02,959.776 M1921.249,959.776c0-28.784-19.644-49.061-46.45-49.061
			c-26.609,0-46.23,20.277-46.23,49.061c0,28.788,19.622,49.065,46.23,49.065C1901.605,1008.841,1921.249,988.564,1921.249,959.776
			 M1764.899,708.954c0,23.108-17.864,40.994-40.789,40.994c-23.115,0-40.767-17.886-40.767-40.994
			c0-22.892,17.651-40.554,40.767-40.554C1747.035,668.4,1764.899,686.062,1764.899,708.954 M1719.994,1132.47
			c0,23.119-17.9,41.001-40.803,41.001c-23.093,0-40.759-17.882-40.759-41.001c0-22.888,17.666-40.551,40.759-40.551
			C1702.094,1091.919,1719.994,1109.582,1719.994,1132.47 M1518.944,943.641v62.578h73.052v60.41h-73.052v62.351h-68.254v-62.351
			h-39.91v-60.41h39.91v-71.298c0-53.65,25.964-87.869,83.291-87.869c34.46,0,55.818,9.807,75.886,23.756l-23.555,53.203
			c-10.679-6.317-24.419-13.297-37.061-13.297C1532.025,910.715,1518.944,919.006,1518.944,943.641 M1454.389,83.078
			l-43.608,136.516h-68.262l-43.184-135.857l-41.206,135.857h-72.612l73.931-213.918h75.652l41.228,127.998l41.631-127.998h76.113
			l73.689,213.918h-71.741L1454.389,83.078z M1381.571,577.69l6.343,68.035c-5.244,1.527-13.96,3.267-24.009,3.267
			c-26.162,0-45.996-9.811-58.425-30.531v24.646h-65.42V429.198h68.262v115.569c0,26.602,14.817,38.591,39.031,38.591
			C1359.555,583.359,1372.416,580.744,1381.571,577.69 M1305.033,852.714h66.064v213.915h-66.064v-23.119
			c-12.861,16.791-32.483,29-61.275,29c-57.349,0-99.653-49.71-99.653-112.515c0-63.237,42.305-112.943,99.426-112.943
			c29.019,0,48.64,11.982,61.502,28.777V852.714z M1305.7,959.776c0-28.341-18.977-49.061-45.798-49.061
			c-27.261,0-45.586,21.149-45.586,49.061s18.325,49.065,45.586,49.065C1286.723,1008.841,1305.7,988.121,1305.7,959.776
			 M1047.949,852.714l81.782,213.915h-72.191l-48.179-139.556L961.6,1066.629h-74.352l82.855-213.915H1047.949z M872.857,959.776
			c0,64.764-49.281,112.734-116.221,112.734c-66.731,0-116.012-47.97-116.012-112.734c0-64.757,49.281-112.723,116.012-112.723
			C823.576,847.052,872.857,895.019,872.857,959.776 M803.071,959.776c0-28.784-19.618-49.061-46.436-49.061
			c-26.613,0-46.23,20.277-46.23,49.061c0,28.788,19.618,49.065,46.23,49.065C783.453,1008.841,803.071,988.564,803.071,959.776
			 M612.268,225.475c-28.561,0-50.142-10.247-63.662-32.71v26.829h-65.424V5.675h68.247v115.122c0,27.7,15.703,40.576,34.677,40.576
			c21.145,0,33.798-14.18,33.798-39.478V5.675h68.247v140.427C688.151,195.6,655.012,225.475,612.268,225.475 M528.556,852.714
			h68.24v140.424c0,49.501-33.138,79.373-75.879,79.373c-28.568,0-50.145-10.25-63.666-32.699v26.818h-65.42V852.714h68.251v115.137
			c0,27.689,15.699,40.558,34.677,40.558c21.145,0,33.798-14.18,33.798-39.478V852.714z M268.418,852.714h68.254v140.424
			c0,49.501-33.142,79.373-75.886,79.373c-28.561,0-50.156-10.25-63.669-32.699v26.818H131.7V852.714h68.247v115.137
			c0,27.689,15.699,40.558,34.669,40.558c21.152,0,33.801-14.18,33.801-39.478V852.714z M81.552,1132.47
			c0,23.119-17.878,41.001-40.778,41.001C17.659,1173.471,0,1155.589,0,1132.47c0-22.888,17.659-40.551,40.774-40.551
			C63.673,1091.919,81.552,1109.582,81.552,1132.47 M75.231,1066.629H6.976V852.714h68.254V1066.629z M825.982,580.744
			c0,7.852,6.98,13.077,24.858,13.077c21.801-0.216,49.281-7.628,70.43-16.564l18.973,53.199
			c-35.112,13.521-57.352,18.322-92.018,18.322c-58.224,0-92.461-25.953-92.461-71.521c0-38.379,23.987-59.751,75.45-67.383
			l12.429-1.743c24.203-3.706,33.798-6.98,33.798-15.271c0-9.148-8.727-13.953-29.875-13.953c-29.656,0-54.075,7.427-75.439,20.068
			l-23.771-52.778c24.423-15.916,62.15-22.456,98.778-22.456c62.358,0,98.994,28.125,98.994,75.015
			c0,35.977-24.21,57.993-69.994,64.98l-15.699,2.402C839.506,569.406,825.982,571.589,825.982,580.744 M731.972,111.43
			c0-66.716,45.579-111.431,112.738-111.431c39.47,0,71.953,12.869,94.2,35.12l-44.048,40.986
			c-13.517-12.202-30.743-18.75-46.663-18.75c-23.547,0-40.118,10.906-45.791,34.233h145.009c0.868,4.585,1.307,14.172,1.307,21.16
			c-0.216,66.936-43.619,112.727-107.065,112.727C776.682,225.475,731.972,178.813,731.972,111.43 M802.628,134.757
			c5.226,21.152,18.094,32.71,39.247,32.71c19.845,0,33.146-11.323,38.599-32.71H802.628z M1015.009,219.594h-39.895v-60.403h39.895
			V87.882c0-53.643,25.95-87.883,83.302-87.883c34.449,0,55.829,9.822,75.89,23.767l-23.562,53.218
			c-10.679-6.328-24.419-13.301-37.068-13.301c-17.219,0-30.311,8.276-30.311,32.915v62.593h73.048v60.403h-73.048v62.366h-68.251
			V219.594z M1048.4,515.104h145.012c0.864,4.578,1.296,14.18,1.296,21.167c-0.212,66.929-43.608,112.72-107.058,112.72
			c-64.98,0-109.684-46.663-109.684-114.038c0-66.724,45.575-111.431,112.734-111.431c39.47,0,71.949,12.869,94.2,35.112
			l-44.048,40.994c-13.524-12.209-30.754-18.757-46.674-18.757C1070.64,480.871,1054.061,491.784,1048.4,515.104 M1048.609,558.288
			c5.24,21.145,18.102,32.699,39.261,32.699c19.841,0,33.138-11.327,38.591-32.699H1048.609z M1645.419,852.714h68.247v213.915
			h-68.247V852.714z M1495.17,429.198h77.842l81.79,213.908h-72.195l-48.186-139.552l-47.747,139.552h-74.363L1495.17,429.198z
			 M1690.331,429.198h68.247V643.11h-68.247V429.198z M1584.364,112.748c0-64.783,49.263-112.749,115.986-112.749
			c66.951,0,116.221,47.966,116.221,112.749c0,64.761-49.27,112.727-116.221,112.727
			C1633.627,225.475,1584.364,177.509,1584.364,112.748 M1654.12,112.748c0,28.777,19.622,49.05,46.23,49.05
			c26.821,0,46.436-20.273,46.436-49.05c0-28.792-19.614-49.065-46.436-49.065C1673.742,63.683,1654.12,83.957,1654.12,112.748
			 M1927.35,219.594h-65.42V5.675h68.254v115.562c0,26.602,14.817,38.599,39.009,38.599c12.231,0,25.085-2.615,34.248-5.662
			l6.313,68.02c-5.215,1.531-13.945,3.281-23.965,3.281c-26.169,0-46.025-9.807-58.44-30.527V219.594"/>
	</g>
</g>
</svg>
