<?xml version="1.0" encoding="utf-8"?>
<!-- Generator: Adobe Illustrator 15.0.2, SVG Export Plug-In . SVG Version: 6.00 Build 0)  -->
<!DOCTYPE svg PUBLIC "-//W3C//DTD SVG 1.1//EN" "http://www.w3.org/Graphics/SVG/1.1/DTD/svg11.dtd">
<svg version="1.1" id="Ebene_1" xmlns="http://www.w3.org/2000/svg" xmlns:xlink="http://www.w3.org/1999/xlink" viewBox="0 0 320.708 311.205" enable-background="new 0 0 320.708 311.205"
	 xml:space="preserve">
<path fill="#004F91" d="M243.289,32.856h-31.6c11.936,5.737,22.293,14.232,30.278,24.641h1.322
	c28.021,0,50.807,22.796,50.807,50.816c0,28.012-22.786,50.805-50.807,50.805h-1.322c-7.984,10.408-18.339,18.904-30.278,24.641
	h31.6c41.608,0,75.455-33.845,75.455-75.446C318.744,66.705,284.896,32.856,243.289,32.856z"/>
<path d="M175.556,32.856l-49.288-0.002v202.895c0,28.02-22.796,50.813-50.814,50.813c-28.02,0-50.812-22.793-50.812-50.813H0
	c0,41.607,33.85,75.456,75.454,75.456c41.606,0,75.455-33.849,75.455-75.456V57.497h24.647c28.021,0,50.817,22.796,50.817,50.816
	c0,28.012-22.796,50.805-50.817,50.805h-16.427v24.641h16.427c41.61,0,75.455-33.845,75.455-75.446
	C251.011,66.705,217.166,32.856,175.556,32.856z"/>
<polygon fill="#AE0F0A" points="150.909,24.644 126.268,24.644 126.268,0 150.909,0 150.909,24.644 "/>
<g>
	<path d="M192.945,209.676v30.405c0,6.918-5.598,9.882-11.471,9.882c-11.583,0-12.079-4.829-12.079-13.831h8.457
		c0,3.182-0.714,7.901,3.622,7.901c1.867,0,3.183-1.7,3.183-3.402v-30.955H192.945z"/>
	<path d="M199.473,249.301v-39.625h8.287v39.625H199.473z"/>
	<path d="M214.783,209.676h14.931c7.572,0,10.537,4.612,10.537,11.857c0,4.498-1.316,11.634-11.032,11.634h-6.145v16.134h-8.291
		V209.676z M223.073,227.075h4.611c2.466,0,4.171-2.69,4.171-5.324c0-3.236-0.882-5.982-4.611-5.982h-4.171V227.075z"/>
	<path d="M245.299,209.676h14.929c7.573,0,10.538,4.612,10.538,11.857c0,4.498-1.318,11.634-11.035,11.634h-6.145v16.134h-8.287
		V209.676z M253.586,227.075h4.61c2.472,0,4.168-2.69,4.168-5.324c0-3.236-0.877-5.982-4.604-5.982h-4.175V227.075z"/>
	<path d="M275.593,242.06v7.241h-6.587v-7.241H275.593z"/>
	<path d="M281.846,249.301v-39.625h8.291v39.625H281.846z"/>
	<path d="M320.708,209.676v6.587h-9.22v33.038h-8.291v-33.038h-9.22v-6.587H320.708z"/>
</g>
</svg>
