<?xml version="1.0" encoding="utf-8"?>
<!-- Generator: Adobe Illustrator 15.0.2, SVG Export Plug-In . SVG Version: 6.00 Build 0)  -->
<!DOCTYPE svg PUBLIC "-//W3C//DTD SVG 1.1//EN" "http://www.w3.org/Graphics/SVG/1.1/DTD/svg11.dtd">
<svg version="1.1" id="Layer_1" xmlns="http://www.w3.org/2000/svg" xmlns:xlink="http://www.w3.org/1999/xlink" viewBox="0 0 1190.55 155.91" enable-background="new 0 0 1190.55 155.91"
	 xml:space="preserve">
<polygon fill="#00ABDD" points="146.428,27.872 196.692,77.922 146.428,127.98 189.12,127.98 239.443,77.922 189.12,27.872 "/>
<polygon fill="#007AC3" points="48.785,27.872 29.63,47.103 29.63,108.752 48.785,127.98 134.887,127.98 185.211,77.922 
	134.887,27.872 "/>
<polygon fill="#5FC4E1" points="200.338,27.872 250.602,77.922 200.338,127.98 243.03,127.98 293.354,77.922 243.03,27.872 "/>
<g>
	<defs>
		<rect id="SVGID_1_" width="1190.55" height="155.91"/>
	</defs>
	<clipPath id="SVGID_2_">
		<use xlink:href="#SVGID_1_"  overflow="visible"/>
	</clipPath>
	<path clip-path="url(#SVGID_2_)" fill="#282727" d="M384.114,127.994h23.177V27.917h-21.488v0.686h-0.007v66.298l-7.668-17.253
		l-26.093-49.731h-23.177v100.077h21.489l-0.084-67.098l7.758,17.212L384.114,127.994z M428.18,127.994h64.159V108.96h-41.595
		V85.937h34.075V67.058h-34.075V46.95h40.061V27.917H428.18V127.994z M553.274,46.95h27.474V27.917h-77.666V46.95h27.476v81.044
		h22.716V46.95z M606.52,77.803c0-20.108,10.897-32.234,24.559-32.234c7.214,0,12.586,3.378,17.65,7.982l11.973-14.428
		c-6.753-6.907-17.19-13.047-30.084-13.047c-25.325,0-47.274,19.34-47.274,52.494c0,33.614,21.183,51.265,46.508,51.265
		c13.046,0,24.098-5.065,32.387-14.734l-11.973-14.122c-4.912,5.22-11.358,9.363-19.493,9.363
		C616.035,110.342,606.52,98.37,606.52,77.803 M735.757,77.495c0,20.108-8.596,32.847-22.257,32.847
		c-13.66,0-22.257-12.739-22.257-32.847c0-19.954,8.597-31.926,22.257-31.926C727.161,45.569,735.757,57.541,735.757,77.495
		 M758.934,77.495c0-32.539-18.42-51.419-45.434-51.419s-45.434,18.725-45.434,51.419c0,32.693,18.42,52.34,45.434,52.34
		S758.934,110.188,758.934,77.495 M829.998,127.994h23.178V27.917h-21.489v18.761h-0.022v48.186l-7.652-17.216l-26.093-49.731
		h-23.178v100.077h21.489v-0.058V61.081l7.675,17.028L829.998,127.994z M936.212,77.495c0,20.108-8.594,32.847-22.255,32.847
		S891.7,97.603,891.7,77.495c0-19.954,8.596-31.926,22.257-31.926S936.212,57.541,936.212,77.495 M959.39,77.495
		c0-32.539-18.419-51.419-45.433-51.419c-27.016,0-45.434,18.725-45.434,51.419c0,32.693,18.418,52.34,45.434,52.34
		C940.971,129.835,959.39,110.188,959.39,77.495 M1047.492,127.994h20.568V27.917h-24.56l-15.81,44.512
		c-1.996,5.832-3.684,12.279-5.679,18.419h-0.614c-1.995-6.14-3.838-12.587-5.833-18.419l-16.116-44.512h-24.712v100.077h20.262
		v-0.058h0.073V64.319l5.604,16.707l14.275,38.22h12.432l14.275-38.22l5.922-17.32L1047.492,127.994z M1160.921,27.917h-23.638
		l-9.056,23.023c-2.763,7.521-5.526,14.429-8.442,22.103h-0.614c-2.763-7.674-5.372-14.582-8.136-22.103l-8.902-23.023h-24.25
		l30.236,64.465v35.611h22.563V92.383L1160.921,27.917z"/>
</g>
</svg>
