<?xml version="1.0" encoding="utf-8"?>
<!-- Generator: Adobe Illustrator 15.0.2, SVG Export Plug-In . SVG Version: 6.00 Build 0)  -->
<!DOCTYPE svg PUBLIC "-//W3C//DTD SVG 1.1//EN" "http://www.w3.org/Graphics/SVG/1.1/DTD/svg11.dtd">
<svg version="1.1" id="Ebene_1" xmlns="http://www.w3.org/2000/svg" xmlns:xlink="http://www.w3.org/1999/xlink" viewBox="0 0 119.055 45.354" enable-background="new 0 0 119.055 45.354"
	 xml:space="preserve">
<g>
	<g>
		<rect x="3.089" y="12.304" fill="#EE2B56" width="20.745" height="20.747"/>
		<rect x="25.909" y="12.304" fill="#EE2B56" width="20.746" height="20.747"/>
		<rect x="48.73" y="12.304" fill="#EE2B56" width="20.745" height="20.747"/>
		<rect x="13.461" y="22.677" fill="#EE2B56" width="20.747" height="20.747"/>
		<rect x="38.357" y="1.931" fill="#EE2B56" width="20.744" height="20.746"/>
	</g>
	<g>
		<g>
			<path d="M78.193,15.632h-6.643v-3.319H88.67v3.319h-6.641v17.374h-3.836V15.632z"/>
			<path d="M107.918,25.402c0,1.246-0.225,2.371-0.672,3.375c-0.449,1.004-1.061,1.855-1.836,2.557
				c-0.775,0.703-1.689,1.242-2.75,1.621c-1.061,0.381-2.211,0.57-3.455,0.57c-1.242,0-2.395-0.189-3.455-0.57
				c-1.061-0.379-1.982-0.918-2.766-1.621c-0.785-0.701-1.398-1.553-1.834-2.557c-0.439-1.004-0.658-2.129-0.658-3.375V12.313h3.838
				v12.958c0,0.504,0.08,1.035,0.244,1.59s0.434,1.066,0.813,1.533s0.879,0.852,1.504,1.152c0.621,0.301,1.393,0.451,2.314,0.451
				c0.92,0,1.691-0.15,2.314-0.451s1.125-0.686,1.504-1.152c0.377-0.467,0.648-0.979,0.813-1.533
				c0.162-0.555,0.244-1.086,0.244-1.59V12.313h3.838V25.402z"/>
		</g>
		<g>
			<path d="M86.346,35.857c-0.76-0.328-1.746-0.486-2.533-0.486c-2.293,0-3.561,1.443-3.561,3.318c0,1.861,1.238,3.264,3.334,3.264
				c0.535,0,0.959-0.053,1.297-0.131v-2.387h-2.084v-1.441h3.969v4.93c-1.041,0.262-2.125,0.471-3.182,0.471
				c-3.18,0-5.391-1.48-5.391-4.574c0-3.135,2.057-4.891,5.391-4.891c1.141,0,2.041,0.145,2.887,0.381L86.346,35.857z"/>
			<path d="M88.709,36.486h1.676v1.533h0.029c0.084-0.629,0.857-1.691,1.982-1.691c0.184,0,0.383,0,0.578,0.053v1.771
				c-0.168-0.092-0.506-0.145-0.846-0.145c-1.533,0-1.533,1.783-1.533,2.752v2.479h-1.887V36.486z"/>
			<path d="M94.465,36.84c0.732-0.314,1.719-0.512,2.521-0.512c2.209,0,3.123,0.854,3.123,2.846v0.865
				c0,0.682,0.016,1.193,0.029,1.691c0.014,0.512,0.041,0.982,0.084,1.508h-1.66c-0.07-0.354-0.07-0.801-0.084-1.01h-0.029
				c-0.436,0.746-1.381,1.166-2.238,1.166c-1.279,0-2.533-0.721-2.533-2.006c0-1.008,0.52-1.598,1.238-1.926
				s1.646-0.395,2.436-0.395h1.041c0-1.088-0.52-1.455-1.633-1.455c-0.801,0-1.604,0.289-2.236,0.734L94.465,36.84z M96.676,42.111
				c0.578,0,1.027-0.236,1.322-0.604c0.311-0.381,0.395-0.865,0.395-1.391h-0.816c-0.844,0-2.096,0.131-2.096,1.168
				C95.48,41.861,96,42.111,96.676,42.111z"/>
			<path d="M101.658,36.486h5.742v1.441l-3.604,3.947h3.73v1.363h-6.023v-1.43l3.672-3.959h-3.518V36.486z"/>
		</g>
	</g>
	<rect x="109.055" y="36.512" fill="#EE2B56" width="6.91" height="6.912"/>
</g>
</svg>
