<?xml version="1.0" encoding="utf-8"?>
<!-- Generator: Adobe Illustrator 15.0.2, SVG Export Plug-In . SVG Version: 6.00 Build 0)  -->
<!DOCTYPE svg PUBLIC "-//W3C//DTD SVG 1.1//EN" "http://www.w3.org/Graphics/SVG/1.1/DTD/svg11.dtd">
<svg version="1.1" id="Layer_1" xmlns="http://www.w3.org/2000/svg" xmlns:xlink="http://www.w3.org/1999/xlink" viewBox="0 0 256 420" enable-background="new 0 0 256 420" xml:space="preserve">
<g>
	<path fill-rule="evenodd" clip-rule="evenodd" fill="#286896" d="M213.506,401.938c-0.414-8.584-1.322-16.716-2-25
		c-2.283-27.956-3.574-58.194-7-82c-2.707-18.815-1.967-39.618-3-58c12.336-0.998,24.047-2.621,38-2c3.055-11.301-0.502-27.651,0-40
		c0.154-3.757-2.086-11.025,3-10c-8.301-8.366-16.83-16.503-26-24c-5.666,0-11.332,0-17,0c-0.74-3.407,3.686-1.648,4-4
		c-4.541-5.459-9.236-10.763-13-17c0.467-2.322,2.418-4.728,4-6c2.309-1.857,5.434-1.407,7-4c-0.445-4.78-0.379-9.045,4-9
		c-2.535-5.798-6.818-9.849-9-16c-6.902,0.552-15.582-2.394-20-1c-3.082-2.69-3.574-7.356-5-11c-1.568-4.01-3.34-8.173-5-12
		c-10.105-23.305-19.156-47.085-30-69c-3.685,2.992-7.041,6.845-11,10c-4.229,3.371-8.937,5.374-12,10c-1.129,1.705-2.046,4.671-3,7
		c-1.633,3.987-2.491,8.907-4,12c-1.468,3.009-3.125,5.114-4,7c-0.839,1.808-0.341,3.446-1,5c-1.078,2.542-2.905,4.438-4,7
		c-1.052,2.46-1.889,5.437-3,8c-0.518,1.194-1.546,2.023-2,3c-0.601,1.294-0.436,3.641-1,5c-2.362,5.686-4.505,9.629-7,15
		c-1.626,3.5-3.817,7.741-5,11c-1.063,2.931-1.964,5.624-3,8c-1.914,4.388-3.138,7.764-5,12c-1.086,2.471-2.932,4.517-4,7
		c-4.736,11.008-7.098,20.756-15,27c-3.174,2.054,2.825,1.996,0,3c-3.58,0.8-11.907,2.307-11-1c-9.967,7.7-19.435,15.898-32,21
		c-1.056,2.676,2.218,1.177,3,2c3.543,3.728,0.75,19.04,1,27c0.253,8.056,2.145,15.969,0,21c12.713,3.19,25.206,2.529,40,2
		c-1.552,52.785-5.302,87.35-7,140l-0.225,21H213.506"/>
</g>
<path fill-rule="evenodd" clip-rule="evenodd" fill="none" stroke="#000000" stroke-linecap="round" d="M204,401.598"/>
<circle fill="#FFFFFF" cx="128.35" cy="292" r="39.2"/>
<g>
	<path fill="#FFFFFF" d="M89.942,168.345l3.15-1.05v-19.953l-3.15-1.26v-3.487l9.662-0.21h3.991c8.401,0,13.358,4.957,13.358,14.409
		S111.492,172,102.964,172H89.942V168.345z M99.604,167.085h3.486c4.075,0,6.805-2.521,6.805-10.082
		c0-7.057-2.394-9.662-6.511-9.662h-3.781V167.085z"/>
	<path fill="#FFFFFF" d="M134.044,172l-0.756-2.73c0,0-3.234,3.15-6.805,3.15c-4.075,0-6.511-2.394-6.511-6.595
		c0-4.957,3.697-6.931,10.082-6.931h2.94v-2.31c0-2.227-1.134-3.151-3.235-3.151c-2.142,0-3.696,0.63-3.696,0.63l-0.63,2.73h-3.781
		l-0.294-6.217c0,0,5.083-1.68,9.116-1.68c6.385,0,8.738,2.226,8.738,8.317v10.376l3.15,0.756v3.361L134.044,172z M128.499,167.715
		c2.227,0,4.495-2.437,4.495-2.437v-2.814h-2.395c-3.276,0-4.579,0.84-4.579,2.73C126.021,166.791,126.902,167.715,128.499,167.715z
		"/>
	<path fill="#FFFFFF" d="M145.928,153.559l-2.227-0.672v-3.361l11.216-0.21v3.571l-2.353,0.42l3.738,11.762l3.57-11.636
		l-2.436-0.546v-3.361l11.3-0.21v3.571l-2.604,0.546l-6.176,17.223c-2.016,5.545-4.746,11.426-11.426,11.426
		c-1.428,0-4.074-0.336-4.074-0.336l0.588-4.495h2.73c3.361,0,4.915-3.571,5.629-5.209L145.928,153.559z"/>
</g>
<g>
	<path fill="#FFFFFF" d="M75.776,221.799c0-13.75,8.351-23.301,19.602-23.301c5.5,0,10.55,2.5,10.55,2.5l-1.35,8.05h-2.9l-0.6-5.2
		c-0.75-0.3-2.9-1.1-6.55-1.1c-8,0-13.251,8.851-13.251,18.102c0,5.699,2.8,9.35,8.9,9.35c3.351,0,5.75-0.6,7.75-1.35l1.35-8.351
		l-4.25-0.75l0.45-2.75l13.001-0.25l-0.5,3l-3.85,0.75l-1.75,11.001c-2.8,1.3-7.1,3-13.451,3
		C80.676,234.5,75.776,229.4,75.776,221.799z"/>
	<path fill="#FFFFFF" d="M131.177,214.999h-3.25v-3.5c-5.5,0-9.25,13.001-9.25,13.001l-1.6,9.5h-4.75l3.65-22.501l-4.25-1l0.45-2.75
		l9.201-0.25l-1.95,8.7c0.25-0.65,3.5-9.2,10.75-9.2c1.25,0,2.5,0.5,2.5,0.5L131.177,214.999z"/>
	<path fill="#FFFFFF" d="M158.428,230.75l-0.45,2.75l-9.301,0.5l2.001-9.201c-0.301,0.601-4.65,9.701-11.201,9.701
		c-3.75,0-6.551-3.75-6.551-8.75c0-12.251,7.4-18.751,14.9-18.751c3.251,0,5.602,1.5,5.602,1.5l1.5-1h2.75L154.077,230
		L158.428,230.75z M152.327,211.499c0,0-1.9-0.75-4.501-0.75c-4.75,0-9.9,4.25-9.9,14.251c0,3.5,1.301,5.25,3.051,5.25
		c6,0,10.351-13.501,10.351-13.501L152.327,211.499z"/>
	<path fill="#FFFFFF" d="M183.178,207.499l-0.25,3.25L166.977,230.1h9.4l1.6-4.1h3l-1.05,8h-19.251l0.25-3.5l16.001-19.251h-8.7
		l-1.601,3.75h-3.25l1.149-7.5H183.178z"/>
</g>
<g>
	<path fill="#FFFFFF" d="M83.432,376.43c9.872-8.822,14.493-13.232,14.493-17.854c0-2.94-2.1-4.831-5.671-4.831
		c-2.311,0-4.411,0.841-4.411,0.841l-0.42,3.99h-3.36l-0.21-6.721c0,0,4.621-1.681,8.611-1.681c6.301,0,10.082,2.101,10.082,7.981
		c0,5.461-4.201,10.291-13.232,18.273h14.072V380H83.432V376.43z"/>
	<path fill="#FFFFFF" d="M130.055,364.877c0,9.872-3.36,15.543-10.922,15.543c-7.561,0-10.712-5.461-10.712-14.912
		c0-9.452,3.151-15.333,11.132-15.333C127.535,350.175,130.055,355.426,130.055,364.877z M113.042,365.297
		c0,7.563,1.89,11.553,6.301,11.553c4.411,0,6.091-3.99,6.091-11.762c0-7.563-1.47-11.343-6.091-11.343
		C114.723,353.745,113.042,357.525,113.042,365.297z"/>
	<path fill="#FFFFFF" d="M153.028,380h-17.181v-3.57h6.469v-21.004l-7.141,4.621l-1.765-3.025l9.788-6.427h3.528v25.835h6.301V380z"
		/>
	<path fill="#FFFFFF" d="M174.447,350.595v3.15L163.232,380H158.4l11.133-25.625h-11.258l-0.84,3.991h-3.151v-7.771H174.447z"/>
</g>
<g>
	<path fill="#FFFFFF" d="M107.395,119.658c0,4.831,1.386,6.721,5.461,6.721c4.453,0,5.377-2.395,5.377-7.352v-12.686l-3.276-1.26
		v-3.487l12.938-0.21v3.697l-3.15,1.26v12.686c0,8.107-3.066,12.476-12.098,12.476c-8.401,0-11.762-3.738-11.762-11.846v-13.316
		l-3.15-1.26v-3.487l12.938-0.21v3.697l-3.277,1.26V119.658z"/>
	<path fill="#FFFFFF" d="M142.129,131h-12.477v-3.655l2.604-0.882l8.485-10.334l-7.813-10.25l-2.437-0.798v-3.487l12.602-0.21v3.697
		l-2.101,0.714l4.327,5.839l4.116-5.671l-2.268-0.882v-3.487l12.098-0.21v3.697l-2.772,0.84l-7.729,9.872l8.191,10.712l2.941,0.84
		V131h-13.023v-3.655l1.934-0.672l-4.621-6.301l-4.705,6.133l2.646,0.84V131z"/>
</g>
</svg>
