<?xml version="1.0" encoding="utf-8"?>
<!-- Generator: Adobe Illustrator 15.0.2, SVG Export Plug-In . SVG Version: 6.00 Build 0)  -->
<!DOCTYPE svg PUBLIC "-//W3C//DTD SVG 1.1//EN" "http://www.w3.org/Graphics/SVG/1.1/DTD/svg11.dtd">
<svg version="1.1" id="Layer_1" xmlns="http://www.w3.org/2000/svg" xmlns:xlink="http://www.w3.org/1999/xlink" x="0px" y="0px"
	 width="256px" height="420px" viewBox="0 0 256 420" enable-background="new 0 0 256 420" xml:space="preserve">
<g>
	<path fill-rule="evenodd" clip-rule="evenodd" fill="#143D00" d="M213.506,401.938c-0.414-8.584-1.322-16.716-2-25
		c-2.283-27.956-3.574-58.194-7-82c-2.707-18.815-1.967-39.618-3-58c12.336-0.998,24.047-2.621,38-2c3.055-11.301-0.502-27.651,0-40
		c0.154-3.757-2.086-11.025,3-10c-8.301-8.366-16.83-16.503-26-24c-5.666,0-11.332,0-17,0c-0.74-3.407,3.686-1.648,4-4
		c-4.541-5.459-9.236-10.763-13-17c0.467-2.322,2.418-4.728,4-6c2.309-1.857,5.434-1.407,7-4c-0.445-4.78-0.379-9.045,4-9
		c-2.535-5.798-6.818-9.849-9-16c-6.902,0.552-15.582-2.394-20-1c-3.082-2.69-3.574-7.356-5-11c-1.568-4.01-3.34-8.173-5-12
		c-10.105-23.305-19.156-47.085-30-69c-3.685,2.992-7.041,6.845-11,10c-4.229,3.371-8.937,5.374-12,10c-1.129,1.705-2.046,4.671-3,7
		c-1.633,3.987-2.491,8.907-4,12c-1.468,3.009-3.125,5.114-4,7c-0.839,1.808-0.341,3.446-1,5c-1.078,2.542-2.905,4.438-4,7
		c-1.052,2.46-1.889,5.437-3,8c-0.518,1.194-1.546,2.023-2,3c-0.601,1.294-0.436,3.641-1,5c-2.362,5.686-4.505,9.629-7,15
		c-1.626,3.5-3.817,7.741-5,11c-1.063,2.931-1.964,5.624-3,8c-1.914,4.388-3.138,7.764-5,12c-1.086,2.471-2.932,4.517-4,7
		c-4.736,11.008-7.098,20.756-15,27c-3.174,2.054,2.825,1.996,0,3c-3.58,0.8-11.907,2.307-11-1c-9.967,7.7-19.435,15.898-32,21
		c-1.056,2.676,2.218,1.177,3,2c3.543,3.728,0.75,19.04,1,27c0.253,8.056,2.145,15.969,0,21c12.713,3.19,25.206,2.529,40,2
		c-1.552,52.785-5.302,87.35-7,140l-0.225,21H213.506"/>
</g>
<path fill-rule="evenodd" clip-rule="evenodd" fill="none" stroke="#000000" stroke-linecap="round" d="M204,401.598"/>
<circle fill="#FFFFFF" cx="128.35" cy="292" r="39.2"/>
<g>
	<path fill="#FFFFFF" d="M64.26,216.36c0-16.499,10.02-27.958,23.52-27.958c6.6,0,12.659,3,12.659,3l-1.62,9.66h-3.479l-0.72-6.24
		c-0.9-0.36-3.48-1.32-7.859-1.32c-9.6,0-15.899,10.62-15.899,21.719c0,6.84,3.36,11.22,10.679,11.22c4.02,0,6.9-0.72,9.3-1.62
		l1.62-10.02l-5.1-0.9l0.54-3.3l15.6-0.3l-0.6,3.6l-4.62,0.9L96.179,228c-3.36,1.561-8.52,3.6-16.139,3.6
		C70.14,231.6,64.26,225.48,64.26,216.36z"/>
	<path fill="#FFFFFF" d="M130.74,208.201h-3.9v-4.2c-6.6,0-11.1,15.6-11.1,15.6L113.82,231h-5.7l4.38-26.999l-5.1-1.2l0.54-3.3
		l11.04-0.3l-2.34,10.439c0.3-0.78,4.2-11.039,12.899-11.039c1.5,0,3,0.6,3,0.6L130.74,208.201z"/>
	<path fill="#FFFFFF" d="M163.439,227.1l-0.541,3.301l-11.159,0.6l2.399-11.039c-0.359,0.72-5.579,11.639-13.439,11.639
		c-4.5,0-7.859-4.5-7.859-10.499c0-14.7,8.88-22.499,17.879-22.499c3.9,0,6.721,1.8,6.721,1.8l1.799-1.2h3.301l-4.32,26.999
		L163.439,227.1z M156.119,204.001c0,0-2.279-0.9-5.4-0.9c-5.699,0-11.879,5.1-11.879,17.099c0,4.2,1.561,6.3,3.66,6.3
		c7.199,0,12.419-16.199,12.419-16.199L156.119,204.001z"/>
	<path fill="#FFFFFF" d="M193.139,199.201l-0.3,3.9l-19.14,23.219h11.279l1.92-4.92h3.601l-1.26,9.6h-23.099l0.299-4.199
		l19.199-23.1h-10.439l-1.92,4.5h-3.899l1.38-9H193.139z"/>
</g>
<g>
	<path fill="#FFFFFF" d="M97.41,157.801c0,6.899,1.98,9.6,7.8,9.6c6.36,0,7.68-3.42,7.68-10.5v-18.12l-4.68-1.8v-4.979l18.479-0.3
		v5.28l-4.5,1.8v18.12c0,11.58-4.38,17.819-17.279,17.819c-12,0-16.799-5.339-16.799-16.919v-19.02l-4.5-1.8v-4.979l18.479-0.3v5.28
		l-4.68,1.8V157.801z"/>
	<path fill="#FFFFFF" d="M147.03,174h-17.819v-5.22l3.72-1.26l12.12-14.76l-11.16-14.639l-3.48-1.14v-4.979l18-0.3v5.28l-3,1.02
		l6.18,8.34l5.88-8.1l-3.239-1.26v-4.979l17.279-0.3v5.28l-3.961,1.2l-11.039,14.099l11.699,15.299l4.2,1.2V174h-18.6v-5.22
		l2.761-0.96l-6.601-9l-6.72,8.759l3.78,1.2V174z"/>
</g>
</svg>
